<?xml version="1.0" encoding="utf-8" ?>
<svg xmlns="http://www.w3.org/2000/svg" xmlns:xlink="http://www.w3.org/1999/xlink" width="1024" height="1024">
	<path fill="#5C1532" d="M462.583 284.75C485.817 259.104 513.653 240.776 549.177 239.086C573.713 237.919 597.242 244.165 618.56 256.159C627.794 261.354 636.629 267.373 645.807 272.704C652.383 276.523 663.07 280.286 668.384 284.506L667.725 284.53L668.585 284.73C668.702 286.393 668.517 287.318 667.401 288.613C665.429 290.902 662.276 292.237 659.556 293.429C664.44 295.222 675.715 298.512 677.971 303.354C678.558 304.615 678.621 305.611 678.183 306.931C676.907 310.78 671.29 312.859 667.987 314.427C685.521 339.757 699.992 367.454 713.741 394.974C753.95 475.461 779.058 537.481 849.62 598.33C875.908 620.998 905.154 640.779 937.087 654.594C947.754 659.143 958.787 662.782 970.067 665.472C976.282 666.927 982.71 667.526 988.742 669.656C989.257 669.838 989.782 669.998 990.3 670.172C981.949 676.084 971.298 678.54 961.509 681.079C915.217 693.089 868.553 692.602 821.674 684.649C833.457 702.822 846.24 720.173 858.89 737.742C881.41 769.364 904.975 800.228 929.546 830.283C939.172 842.021 949.151 853.465 959.468 864.601C966.403 872.08 975.918 880.743 981.427 889.09C980.598 895.014 979.291 899.715 974.152 903.423C967.368 908.318 957.593 908.611 949.628 907.18C942.043 905.817 935.37 902.541 928.658 898.907C924.074 904.513 919.162 907.948 911.77 908.637C895.464 910.159 880.717 900.318 868.929 890.23C866.679 888.301 864.498 886.292 862.39 884.209C857.169 888.45 852.034 891.284 845.037 890.474C832.978 889.078 823.301 878.711 816.373 869.578C800.261 848.338 791.964 822.14 783.054 797.343C771.851 766.163 760.859 734.959 748.554 704.189C743.57 691.724 738.964 678.583 732.516 666.797C720.161 671.734 706.927 674.151 693.663 674.777C677.37 686.654 654.985 700.442 643.554 717.106C646.162 722.197 648.254 727.347 650.405 732.634C669.365 743.191 686.609 756.569 701.547 772.309C710.756 782.013 719.613 792.046 728.101 802.387C746.262 824.778 762.959 848.289 780.71 870.997L825 926.994C831.921 935.678 864.441 974.672 866.727 981.172C862.581 982.017 854.04 983.217 850.179 981.57C837.004 981.422 823.633 980.155 810.533 978.784C804.403 978.143 797.97 977.754 791.947 976.433C789.157 976.601 785.72 975.606 782.934 975.097C770.426 963.761 753.487 934.484 743.919 919.305C721.316 883.445 700.105 845.387 671.493 813.884C658.973 800.1 645.277 788.315 631.125 776.302C623.837 770.116 628.146 773.851 622.119 773.989C618.91 774.062 614.264 767.291 612.266 765.066C608.619 761.005 605.745 759.59 600.418 759.323C596.537 756.752 594.747 753.495 592.134 749.79C590.336 749.498 587.264 749.356 585.784 748.336C583.174 746.535 582.123 742.837 579.698 740.792C573.548 735.603 565.337 731.64 558.388 727.532C541.722 727.823 524.917 728.879 508.491 731.761C481.348 736.524 454.922 744.467 427.96 750.082C416.282 752.514 404.559 755.029 392.776 756.889C386.446 757.888 379.697 758.009 373.501 759.557C366.489 761.309 359.829 764.11 353.035 766.533C346.447 768.906 339.741 770.937 332.943 772.618C324.961 774.701 316.854 776.272 308.672 777.323C304.082 777.896 299.291 777.976 294.755 778.817C293.279 779.091 292.479 779.59 291.381 780.589L289.392 779.926L289.204 779.308C277.795 779.641 266.425 780.532 254.997 780.797C243.789 781.056 232.053 780.589 220.935 781.755C210.184 782.431 199.451 783.372 188.747 784.577C182.139 785.261 175.37 785.719 168.846 787.007L167.4 785.1C174.453 783.193 182.234 782.741 189.481 781.959C207.325 780.057 225.229 778.762 243.161 778.075C276.122 775.818 324.354 775.217 354.186 760.413C341.157 761.183 328.032 760.284 315.076 758.935C287.958 756.113 264.697 751.245 238.978 742.267C238.856 741.846 238.483 741.551 238.192 741.229C235.547 740.248 233.534 740.747 230.931 740.32C229.654 740.11 229.444 739.752 228.787 738.778L228.158 739.268C224.461 736.874 218.773 735.596 214.587 734.045C207.391 731.396 200.276 728.531 193.253 725.454C186.595 722.507 180.067 719.278 173.685 715.775C168.83 713.102 163.905 709.559 158.667 707.728C154.551 706.289 149.552 706.523 145.24 705.935C141.504 705.425 137.543 704.044 134.038 702.679C115.127 695.317 101.389 677.804 93.5023 659.657C100.396 661.017 107.367 662.256 114.177 663.989C140.167 670.602 150.705 684.226 163.848 706.391C183.382 717.069 205.471 727.497 226.903 733.672C227.605 733.506 227.317 733.538 227.984 733.507C228.161 733.499 228.339 733.5 228.515 733.487C228.784 733.468 229.051 733.437 229.319 733.412C230.621 734.871 232.651 735.423 234.469 735.971C242.758 738.468 251.807 739.612 260.356 741.054C284.391 745.107 309.679 747.241 334.052 746.353C382.694 744.582 463.364 726.314 506.23 703.056C503.032 700.535 500.479 698.258 498.424 694.677C489.649 694.063 488.286 688.226 481.655 684.054L481.046 684.204C480.841 684.907 480.661 685.792 480.315 686.433C479.711 687.554 479.442 687.527 478.291 687.758C474.49 686.687 469.132 677.631 464.557 674.4C455.189 667.783 445.315 661.848 435.897 655.288C424.237 647.05 412.997 638.232 402.222 628.866C373.434 604.17 348.673 575.962 322.727 548.467C316.12 541.466 309.184 534.839 302.436 527.984C277.322 541.197 240.17 534.981 213.713 528.098C206.6 526.248 199.702 523.567 192.552 521.892L191.919 521.749L189.233 520.389C184.152 517.458 168.201 511.953 162.668 513.175L161.839 511.34L162.619 510.972L162.806 510.194C159.543 506.658 149.165 503.149 144.532 501.12C132.468 506.624 119.21 511.689 105.876 512.554C76.9143 514.433 55.6515 503.084 34.6242 484.433C39.5306 481.616 44.7038 479.147 49.9154 476.943C76.7484 465.593 98.2481 466.828 122.834 482.811C136.073 491.417 141.775 496.771 156.869 502.928C151.044 495.785 146.576 487.714 142.485 479.495L141.14 476.472C144.588 475.197 151.494 478.935 154.714 480.411C161.689 483.607 169.445 488.808 173.397 495.506C176.588 500.436 178.896 505.789 181.305 511.13C189.97 515.691 199.509 518.371 208.964 520.776C232.984 526.885 260.649 531.369 284.852 523.936C287.812 523.027 291.725 522.275 294.311 520.597L294.389 520.252C290.052 516.971 286.08 513.161 281.701 509.883C274.431 504.441 266.521 499.818 258.675 495.268C255.644 493.131 252.083 491.362 248.875 489.47C241.729 485.307 234.658 481.015 227.666 476.597C201.998 460.21 178.176 441.098 156.616 419.593C151.13 414.173 145.28 408.708 140.485 402.656L142.037 402.845C142.77 403.645 143.499 404.32 144.347 404.996C143.305 403.447 142.374 402.715 142.516 400.818C145.848 404.342 157.805 418.742 161.609 419.367L163.664 419.071C168.997 430.475 201.874 452.019 213.515 459.169C215.86 460.61 223.22 463.738 224.581 465.573C227.371 466.915 230.037 468.369 232.706 469.938C231.826 468.28 230.977 466.605 230.16 464.915C220.165 443.952 216.666 424.747 224.489 402.668C222.997 421.569 223.792 438.331 231.532 455.966C234.115 461.851 237.225 467.507 239.908 473.353C249.048 478.751 259.31 483.086 268.766 488.02C296.481 502.482 324.254 519.862 345.477 543.17C340.502 533.494 336.997 523.083 332.917 513.014C323.751 490.4 314.875 468.293 307.669 444.943C296.08 439.372 287.859 430.305 281.538 419.213C266.271 392.423 271.717 362.312 279.435 334.163L282.36 323.908L285.389 326.4C305.832 345.939 315.423 364.558 316.027 393.209C316.208 400.363 315.788 407.52 314.769 414.603C313.5 423.291 310.793 432.521 311.734 441.312C312.868 451.908 317.676 463.085 321.127 473.143C320.759 464.493 320.542 455.838 320.476 447.181C320.258 427.553 321.178 409.696 335.111 394.472C350.511 377.643 373.709 372.721 395.065 367.963C393.274 374.35 391.957 380.842 389.941 387.169C383.021 408.882 370.856 429.756 350.433 441.149C342.156 445.766 333.214 448.951 324.825 453.293C323.596 462.182 322.509 471.422 324.34 480.306C326.75 492 334.869 504.438 339.533 515.744C343.309 524.896 345.939 534.523 349.812 543.608C351.224 546.921 352.819 550.47 355.032 553.33C360.928 560.953 368.901 567.443 375.828 574.122C395.202 592.804 415.385 610.218 437.708 625.315C451.321 634.522 465.714 642.47 479.329 651.592C487.963 648.183 495.989 649.345 504.642 651.764C507.668 652.61 510.522 653.506 513.718 653.281C522.983 652.628 553.28 639.142 562.966 634.848C535.516 610.884 508.462 585.548 488.175 554.97C482.895 547.012 479.174 538.411 474.262 530.324C471.14 525.183 465.742 521.737 462.308 516.689C452.485 502.248 444.67 471.992 443.567 454.664C441.848 427.655 449.438 401.619 461.248 377.604C456.702 367.793 452.663 355.319 451.233 344.631C451.204 344.415 451.171 344.199 451.14 343.983C440.741 345.337 428.986 343.241 420.574 336.718C417.317 334.192 412.738 329.763 412.182 325.542C411.999 324.146 412.096 323.89 412.83 322.789C417.969 321.409 426.063 323.452 431.478 323.812C435.569 324.083 439.587 324.123 443.681 323.906C444.521 319.2 445.408 314.601 447.134 310.127C441.682 301.47 433.733 292.205 425.184 286.472C422.158 284.443 417.408 282.471 415.001 279.876C413.87 278.656 413.741 277.693 414.062 276.117C416.153 273.417 420.071 272.715 423.286 272.301C434.811 270.817 449.561 274.129 458.785 281.358C460.116 282.401 461.364 283.578 462.583 284.75ZM528.016 666.386C539.724 674.116 552.908 680.326 565.338 686.798C579.351 694.094 593.356 701.948 607.958 708.005C611.273 709.524 614.796 710.454 618.286 711.48C628.432 705.69 649.876 683.8 658.448 674.367C640.419 670.105 622.534 665.711 605.373 658.598C598.694 655.83 587.718 648.499 581.96 647.018C564.201 653.493 544.867 657.704 528.016 666.386Z"/>
	<path fill="#B27E7A" d="M749.639 844.326C758.902 854.047 767.658 867.896 776.039 878.709C792.094 899.381 808.494 919.784 825.232 939.908C836.817 954.014 847.841 968.392 860.986 981.12C857.661 981.195 853.392 980.816 850.179 981.57C837.004 981.422 823.633 980.155 810.533 978.784C804.403 978.143 797.97 977.754 791.947 976.433C791.111 975.118 787.382 974.734 785.756 974.179C772.618 950.09 757.738 927.268 743.88 903.632C753.647 885.869 753.741 863.789 749.639 844.326Z"/>
	<path fill="#93BA9F" d="M142.485 479.495L141.14 476.472C144.588 475.197 151.494 478.935 154.714 480.411C161.689 483.607 169.445 488.808 173.397 495.506L171.856 496.955C173.204 499.522 174.301 502.113 175.375 504.802C168.263 497.611 165.725 491.271 156.087 486.367C156.494 488.526 174.682 508.583 177.3 510.647C174.969 509.955 172.651 509.216 170.35 508.43C157.403 503.894 149.758 490.949 144.028 479.1L142.485 479.495Z"/>
	<path fill="#5C1532" d="M142.485 479.495L141.14 476.472C144.588 475.197 151.494 478.935 154.714 480.411C161.689 483.607 169.445 488.808 173.397 495.506L171.856 496.955C168.085 491.448 162.896 487.063 156.838 484.263C156.643 484.142 156.451 484.014 156.251 483.899C153.827 482.502 146.59 478.46 144.028 479.1L142.485 479.495Z"/>
	<path fill="#771D31" d="M167.4 785.1C174.453 783.193 182.234 782.741 189.481 781.959C207.325 780.057 225.229 778.762 243.161 778.075C237.952 781.594 219.617 778.039 211.775 781.645L212.032 781.451L212.389 781.65C214.962 781.25 218.656 780.303 220.935 781.755C210.184 782.431 199.451 783.372 188.747 784.577C182.139 785.261 175.37 785.719 168.846 787.007L167.4 785.1Z"/>
	<path fill="#FEFEFD" d="M503.133 258.515C516.338 246.752 546.214 243.212 563.138 244.196C602.773 246.501 629.004 270.121 663.014 286.506L651.789 289.579C647.715 287.679 641.505 283.299 637.117 283.124L636.188 283.606C638.685 289.65 666.201 300.906 673.204 305.484C662.141 312.777 659.198 307.145 653.898 309.273L653.792 309.993C659.51 315.624 664.492 319.062 669.169 325.83C675.513 335.011 680.965 344.907 686.413 354.64C702.066 382.608 715.544 411.674 730.074 440.222C735.598 451.009 741.179 461.767 746.818 472.494C750.721 479.976 755.157 487.489 757.827 495.508C747.554 488.045 736.324 479.743 731.082 467.776C727.384 459.336 724.566 451.246 719.838 443.212C704.17 416.582 682.053 390.18 656.525 372.544C648.856 367.245 640.827 364.052 632.111 360.963C628.057 359.526 623.609 358.184 619.859 356.097L617.101 355.82C613.536 355.197 609.94 354.665 606.316 354.562C595.971 354.27 586.709 357.722 579.241 364.934C565.622 378.086 561.679 399.356 561.409 417.502C534.767 417.652 508.646 414.121 486.586 397.929C467.889 384.207 459.531 363.936 456.129 341.42C459.674 340.304 463.033 338.986 465.989 336.677C471.504 332.368 474.186 325.961 475.006 319.171C476.409 307.551 473.551 298.113 466.416 288.963C473.348 279.681 482.639 271.939 491.917 265.069C494.173 263.399 498.2 259.807 501.034 260.234C501.635 259.365 502.245 259.086 503.133 258.515Z"/>
	<path fill="#F17D7A" d="M503.133 258.515C516.338 246.752 546.214 243.212 563.138 244.196C602.773 246.501 629.004 270.121 663.014 286.506L651.789 289.579C647.715 287.679 641.505 283.299 637.117 283.124L636.188 283.606C638.685 289.65 666.201 300.906 673.204 305.484C662.141 312.777 659.198 307.145 653.898 309.273L653.792 309.993C659.51 315.624 664.492 319.062 669.169 325.83C675.513 335.011 680.965 344.907 686.413 354.64C702.066 382.608 715.544 411.674 730.074 440.222C735.598 451.009 741.179 461.767 746.818 472.494C750.721 479.976 755.157 487.489 757.827 495.508C747.554 488.045 736.324 479.743 731.082 467.776C727.384 459.336 724.566 451.246 719.838 443.212C704.17 416.582 682.053 390.18 656.525 372.544C648.856 367.245 640.827 364.052 632.111 360.963C628.057 359.526 623.609 358.184 619.859 356.097L617.101 355.82C608.845 335.627 596.877 318.222 582.366 302.03C565.465 284.427 544.728 269.499 520.782 263.489C514.283 261.857 507.645 261.225 501.034 260.234C501.635 259.365 502.245 259.086 503.133 258.515Z"/>
	<path fill="#5C1532" d="M503.133 258.515C532.829 259.288 561.12 276.137 581.141 297.203C582.016 298.124 582.886 299.05 583.751 299.98C596.703 313.684 606.412 328.643 614.817 345.439C616.501 348.805 618.722 352.516 619.859 356.097L617.101 355.82C608.845 335.627 596.877 318.222 582.366 302.03C565.465 284.427 544.728 269.499 520.782 263.489C514.283 261.857 507.645 261.225 501.034 260.234C501.635 259.365 502.245 259.086 503.133 258.515Z"/>
	<path fill="#5C1532" d="M536.074 300.014C537.457 299.881 538.857 299.775 540.219 300.131C543.198 300.91 545.628 303.028 547.046 305.724C549.969 311.286 549.644 319.889 547.581 325.7C545.626 331.207 542.483 334.42 537.371 336.961C536.341 336.919 535.256 336.837 534.249 336.616C531.217 335.948 528.427 333.737 526.847 331.106C523.895 326.19 523.947 319.362 525.387 313.981C527.071 307.687 530.429 303.187 536.074 300.014Z"/>
	<path fill="#FEFEFD" d="M535.104 303.31C536.218 303.521 537.426 303.942 538.237 304.783C539.172 305.753 539.478 306.687 539.373 308.021C539.15 310.863 536.815 313.073 534.759 314.739C533.834 314.372 532.661 313.725 531.971 312.993C531.112 312.081 530.578 311.017 530.673 309.737C530.883 306.933 533.138 305.02 535.104 303.31Z"/>
	<path fill="#FBE6C4" d="M470.831 387.418C489.139 402.721 501.404 413.472 526.194 417.699C531.841 418.661 537.787 419.474 543.495 419.923C547.936 420.273 555.238 418.751 559.125 420.706C560.359 421.327 560.827 423.55 560.978 424.8C561.225 426.855 561.374 431.353 560.122 433.021L560.827 433.767L560.628 434.564C559.079 434.772 557.527 434.961 555.972 435.131C557.962 435.385 558.966 435.309 560.597 436.523C562.528 440.065 562.57 452.207 563.189 456.999C564.729 468.927 568.177 480.824 572.048 492.191C591.417 549.062 633.113 600.027 683.604 632.332C698.402 641.8 714.481 648.832 729.888 657.184C699.005 670.891 650.341 664.298 619.304 652.375C565.089 631.546 506.787 577.292 483.223 524.11C481.051 519.207 474.728 506.193 476.222 501.421C477.209 500.197 478.353 499.722 479.734 499.065C483.127 503.508 486.922 510.963 492.977 511.767C496.244 512.2 499.194 510.513 501.612 508.504C502.571 507.707 503.502 506.895 504.394 506.025C507.149 510.374 510.404 515.171 515.727 516.513C517.964 517.078 520.226 516.721 522.164 515.461C523.837 514.373 524.761 512.946 525.766 511.27L526.167 510.608C526.246 510.475 526.321 510.34 526.399 510.205C530.062 512.544 533.446 514.723 538.021 513.853C540.705 513.342 542.969 511.683 544.455 509.414C546.627 506.098 547.582 501.48 546.719 497.606C543.773 501.741 543.448 508.751 537.337 509.794C535.345 510.134 533.477 509.844 531.793 508.703C528.056 506.172 527.442 499.331 524.715 495.696C523.638 496.384 523.49 497.064 523.245 498.281C522.48 502.067 522.837 509.508 519.275 511.792C517.881 512.686 515.888 512.492 514.44 511.896C507.897 509.2 509.455 497.77 504.273 494.85C499.612 498.238 503.769 508.543 492.044 507.151C490.064 506.916 488.46 505.851 487.317 504.243C483.761 499.238 484.833 490.648 480.584 486.769L479.773 486.893C477.817 490.253 479.202 496.029 476.118 498.506C474.021 497.446 473.109 494.477 472.402 492.377C470.456 486.598 467.709 464.837 468.791 458.85C468.999 457.854 468.941 457.029 468.854 456.02C468.546 452.063 469.104 447.685 469.244 443.7C469.629 432.771 469.249 420.86 471.294 410.166C471.621 402.521 471.424 395.035 470.831 387.418Z"/>
	<path fill="#FEFEFD" d="M470.831 387.418C489.139 402.721 501.404 413.472 526.194 417.699C531.841 418.661 537.787 419.474 543.495 419.923C547.936 420.273 555.238 418.751 559.125 420.706C560.359 421.327 560.827 423.55 560.978 424.8C561.225 426.855 561.374 431.353 560.122 433.021L560.827 433.767L560.628 434.564C559.079 434.772 557.527 434.961 555.972 435.131C553.991 435.731 551.551 435.558 549.49 435.587C536.29 435.772 522.295 432.877 510.292 427.384C506.446 426.076 502.803 424.539 499.324 422.438C493.919 419.346 488.664 415.226 484.065 411.032C481.8 412.151 476.358 412.517 473.968 412.017C472.536 411.717 472.107 411.339 471.294 410.166C471.621 402.521 471.424 395.035 470.831 387.418Z"/>
	<path fill="#5C1532" d="M510.292 427.384C510.752 426.78 511.326 426.233 511.844 425.676C528.393 431.225 542.81 432.75 560.122 433.021L560.827 433.767L560.628 434.564C559.079 434.772 557.527 434.961 555.972 435.131C553.991 435.731 551.551 435.558 549.49 435.587C536.29 435.772 522.295 432.877 510.292 427.384Z"/>
	<path fill="#5C1532" d="M484.065 411.032C489.153 410.407 494.946 416.52 499.203 419.046L499.324 422.438C493.919 419.346 488.664 415.226 484.065 411.032Z"/>
	<path fill="#771D31" d="M499.203 419.046C503.395 421.297 507.609 423.507 511.844 425.676C511.326 426.233 510.752 426.78 510.292 427.384C506.446 426.076 502.803 424.539 499.324 422.438L499.203 419.046Z"/>
	<path fill="#5C1532" d="M468.854 456.02C471.896 455.042 472.206 452.36 474.133 452.049C477.291 455.634 474.769 466.704 480.858 467.356C482.785 467.563 484.579 466.42 485.914 465.146C487.803 463.343 489.093 458.364 491.738 458.299C495.418 462.14 494.077 472.689 501.438 472.765C503.518 472.787 505.231 471.917 506.646 470.427C509.285 467.648 509.863 461.729 512.541 459.664C516.223 462.127 514.077 474.23 523.148 473.274C526.651 472.904 530.077 466.734 532.256 467.859C532.542 468.909 532.566 469.038 532.016 470.045C530.422 472.961 527.474 475.44 524.222 476.23C521.724 476.837 519.179 476.474 517.01 475.074C513.933 473.088 513.187 470.18 512.544 466.781C510.639 470.588 508.7 474.393 504.288 475.72C501.737 476.488 499.167 475.898 496.934 474.536C493.724 472.578 491.86 469.599 490.031 466.416C486.931 468.915 484.306 470.302 480.396 471.331C476.44 469.895 474.04 468.794 472.27 464.713C471.643 463.267 471.355 461.646 471.039 460.11C470.344 459.301 469.797 459.152 468.791 458.85C468.999 457.854 468.941 457.029 468.854 456.02Z"/>
	<path fill="#5C1532" d="M517.412 529.284C521.277 532.135 522.873 542.21 524.931 546.687C526.461 550.014 529.223 554.813 532.944 556.015C534.605 556.552 536.183 556.126 537.629 555.253C539.219 554.293 541.151 552.822 541.603 550.935C541.651 550.734 541.684 550.53 541.728 550.328C542.492 546.796 541.418 537.057 543.523 534.739C546.232 536.488 548.784 544.017 551.39 546.982C553.162 548.998 555.379 550.486 558.142 550.499C568.641 550.549 562.602 540.408 566.726 536.46C568.001 537.489 568.318 539.361 568.551 540.912C569.149 544.895 568.449 549.675 565.811 552.86C564.595 554.329 562.836 555.244 560.935 555.394C555.453 555.822 551.061 552.663 547.15 549.298L547.009 549.898C546.04 553.918 544.701 557.78 540.866 559.929C538.51 561.248 535.735 561.353 533.177 560.621C526.985 558.85 523.355 553.766 520.303 548.494C520.143 549.979 519.942 551.416 519.341 552.797C518.429 554.893 516.75 557.028 514.55 557.842C511.957 558.801 508.866 558.102 506.449 556.957C500.786 554.273 496.692 547.908 494.602 542.134C493.822 539.98 492.499 536.127 493.76 533.94C494.131 533.296 494.178 533.504 495.041 533.316C498.431 535.027 499.622 543.164 501.475 546.633C502.887 549.275 504.927 552.249 507.982 553.097C509.673 553.566 511.756 553.305 513.168 552.227C517.696 548.772 516.489 534.784 517.412 529.284Z"/>
	<path fill="#F17D7A" d="M603.297 358.637C607.106 358.197 611.204 358.866 614.926 359.678C649.675 367.257 679.957 394.766 698.664 424.092C690.029 426.568 681.481 425.467 673.252 422.066C670.567 420.956 667.993 419.211 665.148 418.605C663.671 420.836 671.706 435.351 667.836 445.526C666.558 448.888 664.038 451.288 660.775 452.732C652.25 456.503 642.042 453.017 633.852 450.017C630.237 447.894 626.577 445.085 622.656 443.654L622.109 443.967C621.376 448.397 623.614 453.449 624.473 457.785C625.743 464.189 624.638 471.788 620.882 477.193C617.486 482.08 612.082 485.109 606.267 486.071C597.946 487.448 589.089 484.694 582.291 479.919C574.505 474.451 573.14 465.834 571.573 457.023C567.12 431.991 564.829 393.486 579.907 372.174C585.804 363.839 593.495 360.394 603.297 358.637Z"/>
	<path fill="#F17D7A" d="M667.575 531.115C675.667 534.832 686.704 545.859 694.117 551.829C704.854 560.579 715.88 568.968 727.177 576.981C798.844 627.176 871.732 656.613 957.856 671.432C956.395 671.976 954.874 672.372 953.378 672.81C931.085 676.632 908.426 675.82 886.078 672.794C817.206 663.39 752.003 636.095 696.97 593.63C687.1 585.946 675.957 578.034 668.349 568.037C671.982 555.676 670.944 543.392 667.575 531.115Z"/>
	<path fill="#F17D7A" d="M755.542 667.306C764.494 668.763 774.69 673.535 783.666 676.164C789.644 686.517 796.22 696.523 801.999 706.993C810.66 722.688 818.483 738.874 826.978 754.67C840.674 780.214 855.377 805.205 871.053 829.584C880.332 843.986 890.025 857.836 900.888 871.105C906.215 877.611 914.977 885.58 919.119 892.4C918.962 893.95 917.821 894.83 916.797 895.897C912.099 898.195 907.655 898.799 902.492 897.833C893.634 896.176 885.8 890.859 878.981 885.206C843.8 856.037 824.537 806.048 806.524 765.291C800.132 750.828 793.24 736.516 786.49 722.215C777.468 703.103 767.38 684.813 755.542 667.306Z"/>
	<path fill="#F17D7A" d="M786.804 676.978C793.554 678.297 800.237 680.615 806.896 682.376C810.14 688.179 814.501 693.343 818.457 698.669C822.207 703.814 825.866 709.024 829.432 714.298C859.914 759.105 892.44 802.487 926.908 844.306C933.667 852.417 940.639 860.348 947.818 868.089C952.738 873.383 967.978 886.488 970.355 891.901C969.991 893.286 969.373 893.717 968.394 894.738C964.018 896.709 959.86 897.771 954.997 897.426C946.103 896.796 937.522 892.152 930.683 886.666C911.433 871.226 896.995 848.812 883.309 828.563C862.633 797.97 843.776 766.242 824.939 734.499C813.214 714.739 802.142 694.233 786.804 676.978Z"/>
	<path fill="#F17D7A" d="M626.68 569.325C633.933 570.542 640.089 576.559 647.995 577.417C655.392 578.219 661.748 574.627 667.369 570.29C684.602 589.297 705.225 604.133 726.968 617.541C784.837 653.226 844.525 673.506 912.377 678.377C914.232 678.417 916.003 678.409 917.812 678.86C911.725 681.533 877.876 680.834 869.712 680.524C846.582 679.645 824.204 675.342 801.79 669.816C732.099 652.635 675.601 622.18 626.68 569.325Z"/>
	<path fill="#B27E7A" d="M642.634 736.934C644.07 737.091 645.338 737.654 646.604 738.319C673.442 752.408 706.324 786.397 721.259 812.746C725.129 819.576 728.198 826.829 730.404 834.362C734.876 849.201 736.881 865.585 729.342 879.743L725.078 873.44C707.693 845.714 688.226 818.283 664.696 795.403C656.986 787.907 648.864 780.853 640.782 773.766C636.614 770.111 630.961 766.109 627.662 761.653C626.325 759.848 626.31 757.068 626.752 754.96C628.473 746.736 636.015 741.186 642.634 736.934Z"/>
	<path fill="#B27E7A" d="M210.908 461.232C215.526 462.841 219.744 465.385 224.006 467.751C236.146 475.594 249.319 481.43 262.109 488.108C282.245 498.621 301.969 510.489 319.747 524.681C340.511 541.257 357.326 561.869 376.149 580.479C407.53 611.506 435.844 632.295 473.046 655.479C470.158 659.671 468.684 662.962 467.656 667.972C426.021 640.81 389.225 610.5 354.156 575.343C341.155 562.308 328.656 548.779 315.623 535.779C308.816 528.989 301.68 521.526 293.856 515.902C285.888 507.971 270.883 499.095 260.935 493.745C254.421 489.414 247.388 485.667 240.713 481.553C230.389 475.191 220.619 468.49 210.908 461.232Z"/>
	<path fill="#93BA9F" d="M282.728 331.101C283.258 329.668 283.233 328.776 284.629 328.069C290.113 335.604 296.402 342.375 301.294 350.361C317.006 376.013 313.618 405.952 309.014 434.327C308.653 436.553 308.422 438.674 307.125 440.571L305.349 439.518L304.416 439.776C297.173 436.31 289.862 426.675 285.778 419.939C269.009 392.28 275.49 360.591 282.728 331.101Z"/>
	<path fill="#5C1532" d="M294.484 379.489C298.661 388.262 300.891 409.903 302.697 420.401C303.87 427.219 305.463 433.859 307.125 440.571L305.349 439.518C299.529 423.712 293.274 396.169 294.484 379.489Z"/>
	<path fill="#F17D7A" d="M641.157 490.226C643.144 491.86 644.422 495.038 645.639 497.33C653.169 511.515 658.617 526.178 660.794 542.168C661.702 548.835 663.061 558.55 658.503 564.193C656.71 566.413 654.184 567.587 651.367 567.829C640.407 568.773 629.609 560.886 621.831 554.146C608.772 542.348 599.037 528.381 590.934 512.869C592.257 513.447 593.592 513.998 594.937 514.52C603.367 517.898 612.81 517.693 621.085 513.953C631.853 509.122 637.042 500.861 641.157 490.226Z"/>
	<path fill="#F17D7A" d="M746.634 665.404L747.647 665.81C751.124 669.625 753.961 677.51 756.435 682.407C778.136 725.371 795.392 770.391 816.192 813.779C822.849 827.666 829.686 841.998 838.184 854.876C840.799 858.839 843.933 862.546 846.81 866.325C848.911 869.085 851.898 872.808 852.874 876.176C852.975 876.523 853.014 876.917 853.064 877.268C852.749 878.72 851.906 879.279 850.827 880.183C849.881 880.173 848.935 880.144 847.99 880.096C840.267 879.633 833.358 873.633 828.537 868.027C819.684 857.731 813.152 844.959 807.598 832.61C797.208 809.506 789.552 785.465 780.958 761.675C772.84 738.874 763.863 716.387 754.046 694.264C751.903 689.304 742.867 670.813 743.12 667.22C744.139 666.024 745.166 665.907 746.634 665.404Z"/>
	<defs>
		<linearGradient id="gradient_0" gradientUnits="userSpaceOnUse" x1="754.55682" y1="596.72211" x2="816.47375" y2="552.59546">
			<stop offset="0" stop-color="#F7D4B8"/>
			<stop offset="1" stop-color="#FEEEC5"/>
		</linearGradient>
	</defs>
	<path fill="url(#gradient_0)" d="M711.589 511.93C737.48 535.794 766.246 558.01 796.771 575.646C802.945 579.184 809.303 582.388 815.82 585.245C819.725 586.982 824.097 588.379 827.689 590.675C833.544 594.417 837.944 601.173 843.345 605.695C848.906 610.35 854.575 614.976 860.42 619.267C865.365 622.897 870.576 626.235 875.234 630.233C867.408 627.875 859.783 624.224 852.246 621.058C811.07 603.424 772.082 581.064 736.068 554.429C730.98 550.713 713.371 535.622 708.521 534.581L707.907 534.613C712.436 527.827 712.803 519.84 711.589 511.93Z"/>
	<path fill="#B27E7A" d="M506.154 697.423C513.38 698.26 528.321 709.608 535.203 713.691C540.426 716.793 545.754 719.715 551.177 722.453C517.133 722.725 488.271 729.217 455.273 737.113C416.159 746.474 375.505 757.178 335.059 757.342C319.584 757.405 299.763 755.038 284.612 751.928C275.614 751.063 254.551 746.099 246.872 741.849C265.177 743.888 283.207 747.336 301.64 748.597C354.221 752.194 405.897 741.475 456.167 727.093C470.125 723.1 495.599 716.36 507.11 708.192C508.902 706.921 510.577 705.549 510.962 703.289C510.265 700.404 508.446 699.157 506.154 697.423Z"/>
	<path fill="#F17D7A" d="M682.199 459.866C690.676 469.032 700.227 498.179 702.3 510.106C703.231 515.458 704.386 522.475 700.849 527.121C699.216 529.266 696.805 530.371 694.151 530.591C683.473 531.473 672.09 523.442 664.375 517.005C651.3 504.082 643.968 487.91 636.809 471.276C640.739 473.299 644.817 475.2 648.957 476.747C655.53 479.203 663.439 481.247 670.105 478.014C677.397 474.477 679.866 466.997 682.199 459.866Z"/>
	<path fill="#93BA9F" d="M390.272 371.512C390.951 371.647 390.552 371.494 391.294 372.285C391.132 376.749 388.674 382.039 387.052 386.197C372.488 423.527 361.29 434.242 324.707 450.191C333.044 434.868 343.382 421.215 354.12 407.533C354.394 407.195 354.856 406.652 355.053 406.282C355.559 405.336 355.534 404.963 355.311 403.94L354.485 403.864C345.272 408.452 328.852 436.706 323.501 446.078C323.155 433.245 323.564 421.209 329.465 409.491C341.516 385.559 366.802 379.24 390.272 371.512Z"/>
	<path fill="#93BA9F" d="M76.0693 472.68C99.2855 469.289 119.254 484.528 137.321 496.836C128.136 494.198 89.2469 482.683 81.8401 485.597L81.5769 486.288C82.6235 487.232 83.9835 487.481 85.3185 487.812C90.2761 489.037 95.5154 489.586 100.543 490.601C107.999 492.107 115.336 494.115 122.665 496.133C128.208 497.514 133.733 498.959 139.242 500.47C129.834 503.216 120.83 507.223 111.077 508.628C83.1743 512.649 60.4273 501.608 38.7574 485.319C50.3434 479.194 63.0734 474.563 76.0693 472.68Z"/>
	<path fill="#FBE6C4" d="M707.907 534.613L708.521 534.581C711.337 540.672 724.823 549.26 730.379 553.547C764.952 580.228 803.285 603.854 843.248 621.55C850.582 624.815 858.057 627.754 865.65 630.359C871.306 632.239 877.195 633.657 882.701 635.945C888.573 638.385 894.079 642.321 899.633 645.446C903.995 647.901 908.631 649.868 912.885 652.499C903.06 650.226 893.325 646.917 883.693 643.923C808.758 620.623 751.287 583.414 688.344 538.331C696.188 539.061 701.137 539.138 707.907 534.613Z"/>
	<path fill="#B27E7A" d="M520.235 670.906C528.554 675.362 536.572 680.315 544.797 684.936C562.352 694.799 580.444 704.257 599.199 711.636C591.627 715.5 586.327 718.743 582.001 726.381C581.256 728.076 580.661 729.858 580.012 731.594C566.467 722.968 552.43 714.839 538.38 707.061C527.927 701.274 517.357 696.158 507.599 689.176C509.518 680.722 512.906 675.65 520.235 670.906Z"/>
	<path fill="#F17D7A" d="M628.19 460.348C631.696 463.687 636.699 479.297 638.929 484.659C638.496 486.912 637.884 489.127 637.1 491.283C633.939 499.968 626.813 507.45 618.375 511.17C611.713 514.108 603.606 514.662 596.812 511.83C589.222 508.666 586.313 502.609 583.36 495.482C591.401 500.045 599.53 503.836 609.033 502.798C617.962 501.821 623.378 497.245 628.864 490.607C630.302 488.32 631.688 486.062 632.686 483.542C633.321 481.938 633.927 479.949 633.208 478.279C629.652 479.423 626.556 492.992 615.722 497.32C608.647 500.147 600.101 499.559 593.14 496.668C584.993 493.285 580.933 487.725 577.639 479.86C585.951 486.114 594.559 490.913 605.316 489.923C612.13 489.296 618.439 486.409 622.729 480.956C627.071 475.437 629.092 467.319 628.19 460.348Z"/>
	<path fill="#F17D7A" d="M464.018 383.785L464.909 384.586C468.172 393.782 464.141 436.368 463.709 447.899C463.417 455.703 463.992 463.662 463.098 471.419C462.994 471.496 462.887 471.57 462.784 471.65C462.614 471.783 462.448 471.922 462.278 472.056C461.041 473.034 460.284 473.746 459.586 475.193C459.026 476.355 458.512 477.188 457.703 478.19C456.241 477.872 455.76 476.687 454.861 475.536C452.891 472.584 451.608 469.394 450.749 465.965C444.941 442.774 451.924 404.136 464.018 383.785Z"/>
	<path fill="#F17D7A" d="M708.454 441.376C711.679 443.865 718.768 461.124 720.573 465.738C722.283 470.112 725.379 477.763 723.134 482.293C722.507 483.557 721.435 484.422 720.084 484.815C713.838 486.628 703.127 480.054 697.951 476.913C688.994 469.353 683.082 455.309 678.314 444.738C683.074 447.29 688.593 449.898 694.108 449.687C700.377 449.448 704.452 445.737 708.454 441.376Z"/>
	<path fill="#93BA9F" d="M96.3633 661.692C122.166 667.869 140.824 674.122 155.446 697.976C156.326 699.412 157.139 700.665 157.453 702.34L156.933 702.495L155.423 701.417L152.602 701.192L153.628 702.818L153.259 703.722C149.069 705.171 134.14 700.069 129.711 697.911C114.933 690.709 103.941 675.84 96.3633 661.692Z"/>
	<path fill="#5C1532" d="M127.075 677.642C139.132 683.515 146.51 691.795 155.423 701.417L152.602 701.192C144.666 692.641 135.099 685.97 127.075 677.642Z"/>
	<path fill="#F17D7A" d="M733.435 481.945C737.873 485.365 741.782 489.745 745.643 493.79C752.815 501.3 759.72 508.997 766.004 517.274C773.031 526.531 779.368 536.341 786.272 545.704L777.743 539.918C759.509 528.748 733.668 511.344 720.287 494.821C722.68 494.092 725.327 493.354 727.474 492.045C731.408 489.645 732.379 486.126 733.435 481.945Z"/>
	<path fill="#F17D7A" d="M705.127 491.252C709.468 492.904 713.684 494.13 718.312 494.653C729.848 508.936 745.888 523.476 761.411 533.31C770.867 539.301 781.234 544.394 790.027 551.352C797.155 556.992 802.759 564.729 809.15 571.21C806.632 570.668 804.123 569.15 801.87 567.936C791.991 562.613 782.627 556.306 773.26 550.144C756.51 539.126 740.133 527.741 724.468 515.214C719.562 511.291 713.88 507.272 709.863 502.428C707.269 499.299 706.27 495.063 705.127 491.252Z"/>
	<path fill="#B27E7A" d="M726.409 815.31C730.827 817.972 742.808 834.138 744.862 839.311C751.977 857.232 749.673 882.699 742.192 900.14C738.437 897.82 733.487 886.849 731.176 882.612C732.399 880.664 733.645 878.721 734.569 876.609C743.213 856.849 733.851 833.876 726.409 815.31Z"/>
	<path fill="#93BA9F" d="M424.278 277.252C426.859 277.127 429.494 276.947 432.073 277.165C443.737 278.151 455.441 284.358 462.953 293.299C466.011 296.939 469.775 302.395 469.195 307.339C468.856 310.231 467.532 311.826 465.26 313.504L460.259 315.977C451.406 307.89 445.038 297.466 436.777 288.825C434.556 286.493 432.152 284.343 429.588 282.394C427.672 280.961 424.619 279.648 423.199 277.774L424.278 277.252Z"/>
	<path fill="#93BA9F" d="M468.436 318.509L468.991 319.247C469.209 322.157 469.12 324.545 467.729 327.179C465.21 331.947 460.261 335.049 455.264 336.67C444.786 340.068 434.429 338.337 424.747 333.49C422.673 332.14 420.782 330.352 418.878 328.767C439.022 331.164 451.404 329.836 468.436 318.509Z"/>
	<path fill="#F17D7A" d="M672.705 438.805C674.145 440.178 674.892 442.945 675.297 444.853C676.17 448.973 674.545 453.537 672.236 456.921C668.912 461.792 663.828 464.869 658.014 465.734C648.249 467.187 639.713 463.01 632.065 457.422C629.704 455.186 628.41 452.882 627.081 449.969C632.56 452.676 638.34 455.222 644.27 456.747C650.499 458.349 657.861 458.905 663.546 455.385C669.525 451.683 671.116 445.153 672.705 438.805Z"/>
	<path fill="#F17D7A" d="M678.141 452.396C678.658 453.089 679.08 453.947 679.314 454.785C680.308 458.35 678.698 462.905 677.056 466.031C674.939 470.06 671.12 474.826 666.535 476.119C656.907 478.836 645.058 471.63 637.005 467.047C634.815 465.389 633.402 463.627 631.821 461.426C643.206 465.71 650.485 472.219 663.643 467.724C671.348 465.091 674.787 459.281 678.141 452.396Z"/>
	<path fill="#F17D7A" d="M668.931 424.202C680.657 427.039 687.208 431.183 699.556 426.173C700.77 427.913 701.923 429.466 702.597 431.503L702.046 432.461C700.281 433.514 698.439 434.415 696.484 435.063C688.005 437.874 679.562 434.998 672.02 431.125L668.931 424.202Z"/>
	<path fill="#F17D7A" d="M704.598 434.565C705.664 435.405 706.59 437.322 707.34 438.501C704.019 442.169 700.601 445.432 695.498 446.287C689.231 447.337 683.701 444.497 678.82 440.902C676.852 439.253 675.131 437.335 673.363 435.479C676.276 436.633 679.329 437.679 682.381 438.388C690.828 440.35 697.24 439.092 704.598 434.565Z"/>
	<path fill="#F17D7A" d="M462.158 483.329C465.344 488.973 469.485 511.29 469.862 518.089L469.333 518.406L468.085 516.884C463.173 509.219 460.167 501.572 457.6 492.888C458.983 489.618 460.518 486.478 462.158 483.329Z"/>
	<path fill="#B27E7A" d="M618.859 726.937C618.886 726.964 618.921 726.984 618.941 727.017C619.906 728.656 618.686 730.363 617.903 731.901C613.425 740.696 613.02 742.627 611.809 752.374C610.424 752.363 609.101 751.23 607.907 750.527C607.471 750.151 606.876 749.697 606.532 749.218C605.375 747.604 605.362 745.597 605.743 743.721C607.136 736.86 613.144 730.591 618.859 726.937Z"/>
	<path fill="#B27E7A" d="M493.481 666.54C493.786 666.88 493.588 666.613 493.733 667.506C492.313 670.842 490.395 676.588 487.421 678.743C486.449 677.473 485.932 676.553 486.216 674.924C486.875 671.141 490.574 668.647 493.481 666.54Z"/>
	<path fill="#F17D7A" d="M452.476 477.852C453.725 478.667 455.477 480.016 456.171 481.365C457.223 483.41 456.965 484.589 456.27 486.661C455.738 486.762 455.785 486.875 455.369 486.519C453.563 484.969 452.979 480.172 452.476 477.852Z"/>
	<path fill="#B27E7A" d="M451.496 315.29C452.465 316.01 453.657 316.851 454.139 318.004C454.683 319.303 454.08 320.178 453.599 321.368C452.117 321.424 451.733 321.65 450.522 320.726C450.034 319.003 450.971 316.965 451.496 315.29Z"/>
	<path fill="#5C1532" d="M272.949 108.511C278.49 109.095 283.424 111.042 288.357 113.547C297.297 118.088 305.859 123.59 314.464 128.735C326.672 135.99 338.938 143.149 351.26 150.21C366.544 158.891 381.874 167.491 397.25 176.01C405.394 180.479 422.462 187.809 428.44 193.777C432.553 197.883 432.328 204.713 432.461 210.112C426.817 220.903 419.606 231.177 413.184 241.537C401.365 260.605 389.956 280.079 376.043 297.723C375.838 297.888 375.654 298.083 375.428 298.217C374.476 298.779 373.149 298.372 372.205 298.003C369.448 296.926 366.69 294.936 364.06 293.519C356.075 289.219 348.138 284.831 340.251 280.355C312.44 264.988 285.131 248.73 258.367 231.605C247.996 224.969 237.348 218.717 227.54 211.248C224.512 208.942 219.156 205.106 218.051 201.33C216.439 195.816 226.439 178.426 229.317 172.939C235.743 160.918 242.283 148.959 248.936 137.062C253.074 129.719 257.012 121.217 262.717 115.001C265.737 111.711 268.697 109.834 272.949 108.511Z"/>
	<path fill="#FBE6C4" d="M306.113 189.205C308.79 189.024 311.55 189.09 314.237 189.037C315.057 192.732 315.777 196.572 317.005 200.154C318.091 203.322 319.695 206.791 322.953 208.212C326.925 209.944 330.771 208.118 334.468 206.62C349.02 233.643 363.006 262.452 370.808 292.207C353.387 283.11 336.52 272.646 319.271 263.174C298.972 251.535 278.987 239.357 259.336 226.655C246.668 218.498 233.968 210.536 222.383 200.864C249.097 192.654 278.34 190.26 306.113 189.205Z"/>
	<path fill="#FBE6C4" d="M273.366 112.453C275.835 112.417 278.274 112.994 280.465 114.132C305.242 126.78 328.641 142.616 352.86 156.365C365.306 163.404 377.81 170.341 390.37 177.175C402.513 183.661 416.233 189.275 426.666 198.391C427.596 201.458 428.209 204.606 428.883 207.737C424.496 208.842 419.99 209.252 415.484 209.484C391.831 209.678 369.551 206.007 346.899 199.441C347.745 197.19 348.725 194.555 348.768 192.128C348.796 190.541 348.412 188.861 347.189 187.756C344.077 184.947 337.623 185.905 333.736 186.028C332.022 183.543 330.569 180.526 328.334 178.48C326.786 177.064 324.924 175.855 322.72 176.201C319.226 176.75 316.926 180.3 315.082 182.994C296.518 163.133 278.838 141.609 268.029 116.414C269.7 114.97 271.568 113.734 273.366 112.453Z"/>
	<path fill="#FBE6C4" d="M342.749 202.44C348.426 202.397 354.542 206.15 360.13 207.386C381.23 212.051 404.908 214.821 426.398 211.812C416.658 229.397 405.293 246.171 394.334 263.008L374.927 293.207C367.634 262.178 353.186 233.182 338.264 205.187L342.749 202.44Z"/>
	<path fill="#FBE6C4" d="M264.232 119.491C266.919 122.405 269.038 128.143 270.979 131.693C273.383 136.033 275.939 140.288 278.642 144.448C288.434 159.632 300.372 173.077 312.815 186.106C295.986 184.894 280.08 187.023 263.504 189.631C249.729 191.672 236.045 194.286 222.487 197.468C225.752 188.185 230.856 179.442 235.313 170.691C244.188 153.269 252.82 135.431 264.232 119.491Z"/>
	<path fill="#F17D7A" d="M322.253 179.454C323.484 179.482 325.106 179.576 326.219 180.202C329.345 181.959 329.215 187.043 330.255 190.158L330.423 190.651C333.243 189.489 336.261 188.061 339.375 188.335C341.429 188.516 343.588 189.154 344.817 190.938C345.576 192.039 345.672 193.153 345.328 194.408C344.345 197.995 340.929 199.777 337.912 201.409C333.843 203.549 329.564 205.175 325.248 206.733C321.201 200.561 319.128 194.343 317.182 187.288C318.459 183.918 319.497 181.825 322.253 179.454Z"/>
	<path fill="#5C1532" d="M39.1868 296.993C39.6435 297.059 40.0997 297.128 40.5553 297.201C70.6618 302.028 100.939 319.273 118.928 344.115C127.584 356.068 134.734 373.314 132.371 388.299C135.718 392.5 139.1 396.673 142.516 400.818C142.374 402.715 143.305 403.447 144.347 404.996C143.499 404.32 142.77 403.645 142.037 402.845L140.485 402.656C136.637 399.156 133.484 394.539 129.906 390.712C129.452 390.833 128.999 390.957 128.541 391.056C114.723 394.042 98.9785 390.07 87.2591 382.482C61.6264 365.884 45.5938 326.107 39.1868 296.993Z"/>
	<path fill="#93BA9F" d="M41.923 299.655C59.0428 303.407 75.248 310.519 89.6006 320.577C117.088 339.527 125.033 355.452 130.905 387.383C124.588 378.242 101.619 345.504 91.6689 342.857C91.5063 344.412 91.7507 345.02 92.6784 346.275C97.0336 352.164 102.729 357.298 107.537 362.853C114.759 371.197 121.328 380.075 127.898 388.933C116.422 389.579 105.328 388.21 94.9128 383.11C64.953 368.437 52.0276 329.048 41.923 299.655Z"/>
	<path fill="#5C1532" d="M83.8424 855.534C87.5526 843.44 91.7141 831.318 98.5632 820.587C108.967 804.285 127.42 787.448 147.553 785.666C153.973 785.097 160.344 786.723 166.694 785.269C166.93 785.215 167.165 785.157 167.4 785.1L168.846 787.007L167.205 788.179C167.627 791.718 168.809 795.076 168.83 798.68C168.892 809.576 162.186 821.623 155.643 829.94C140.713 848.917 116.258 860.997 92.4606 863.693C91.7322 863.776 91.003 863.851 90.2732 863.921C88.9201 864.215 86.9399 864.627 85.5895 864.364C84.7926 864.208 84.0937 863.956 83.6389 863.268C82.3082 861.254 83.4375 857.761 83.8424 855.534Z"/>
	<path fill="#93BA9F" d="M86.223 856.998C94.3357 832.308 106.447 806.805 130.789 794.522C140.25 789.747 149.312 788.309 159.815 788.464C147.323 796.83 132.491 807.911 123.976 820.34C131.862 816.355 138.367 809.507 145.066 803.806C151.147 798.622 157.551 793.83 164.241 789.458C166.302 803.453 162.537 814.749 154.187 826.095C137.701 848.497 111.792 857.245 85.5782 862.152C85.4115 860.238 85.7206 858.842 86.223 856.998Z"/>
	<path fill="#5C1532" d="M289.392 779.926L291.381 780.589C289.918 782.803 288.44 785.006 286.947 787.2C289.523 808.51 287.364 829.848 273.814 847.306C264.216 859.718 251.025 868.869 236.038 873.51C233.905 874.116 230.269 875.467 228.169 874.536C227.073 868.741 228.988 856.478 230.147 850.529C230.978 838.825 233.997 826.176 239.687 815.874C249.744 797.664 265.831 792.001 284.733 786.648C286.483 784.547 287.915 782.221 289.392 779.926Z"/>
	<path fill="#93BA9F" d="M232.386 851.836C235.466 832.622 239.936 813.6 256.501 801.466C263.51 796.332 271.876 792.834 280.264 790.699C277.2 796.565 273.057 801.675 269.521 807.243C264.883 814.548 261.543 822.899 258.63 831.018C262.803 826.519 265.618 820.756 268.645 815.453C273.531 806.89 278.324 798.688 284.886 791.247C285.354 812.945 281.815 834.547 266.186 850.785C256.774 860.564 244.169 867.638 231.538 872.34L230.132 872.37C229.231 869.434 231.836 855.831 232.386 851.836Z"/>
	<path fill="#5C1532" d="M745.163 98.1027C748.587 97.9699 751.216 98.1822 754.116 100.155C758.185 102.922 759.894 107.773 760.67 112.429C763.232 127.812 759.071 150.512 751.672 164.126C748.585 169.807 743.925 174.842 741.842 181.033C740.7 184.425 740.616 188.367 740.084 191.902C738.863 200.012 735.189 208.796 730.397 215.443C727.916 218.886 724.031 225.284 719.527 226.028L719.047 225.475C720.279 221.351 725.518 216.621 727.994 212.928C730.554 209.111 732.508 205.183 734.296 200.959C736.749 193.504 738.125 185.789 739.301 178.046C724.726 163.666 702.612 144.141 697.997 123.722C697.416 121.151 696.678 117.153 698.516 114.907C699.913 113.2 702.466 112.951 704.513 113.003C714.033 113.244 721.712 121.849 727.901 128.205C728.225 122.748 729.365 117.077 731.401 111.995C734.147 105.144 738.398 100.958 745.163 98.1027Z"/>
	<path fill="#F17D7A" d="M745.262 101.496C747.717 101.427 749.707 101.743 751.759 103.176C754.948 105.401 756.267 108.632 756.95 112.35C760.524 131.799 751.784 157.809 740.935 173.761C732.452 165.997 724.514 158.097 717.11 149.289C711.748 142.446 700.958 129.19 701.399 120.259C701.482 118.581 701.988 117.612 703.275 116.503C704.399 116.098 705.266 115.898 706.466 116.128C715.326 117.823 725.321 131.131 730.47 138.084C730.559 131.438 730.796 124.227 732.506 117.791C734.531 110.173 738.548 105.389 745.262 101.496Z"/>
	<path fill="#5C1532" d="M182.16 739.304C177.917 745.409 172.213 749.828 165.515 752.972C140.728 764.605 110.898 755.941 86.5319 747.065C84.13 746.19 80.8006 745.265 79.6612 742.792C79.8083 741.213 80.5579 740.262 81.7004 739.238C85.4942 735.836 91.3752 732.986 95.8956 730.645C116.47 719.989 138.169 715.539 160.385 724.163C167.665 726.989 176.084 733.807 182.411 735.534C194.426 738.813 215.243 738.837 228.158 739.268L228.787 738.778C229.444 739.752 229.654 740.11 230.931 740.32C233.534 740.747 235.547 740.248 238.192 741.229C238.483 741.551 238.856 741.846 238.978 742.267C230.434 740.169 221.355 742.324 212.622 741.959C202.422 741.534 192.336 739.984 182.16 739.304Z"/>
	<path fill="#93BA9F" d="M134.064 722.702C148.445 721.754 162.289 728.018 174.423 735.032C157.851 734.211 139.177 731.945 122.973 735.901C133.831 737.616 145.139 737.664 156.118 737.966C162.154 738.132 170.914 737.021 176.576 738.982C176.978 739.607 177.135 739.543 177.006 740.185C176.354 743.427 170.496 746.507 167.834 748.134C138.945 762.591 110.145 752.059 81.6289 742.684C96.9962 731.436 115.109 724.534 134.064 722.702Z"/>
	<path fill="#5C1532" d="M144.314 276.384C152.573 287.308 159.357 299.514 163.14 312.736C170.258 337.618 164.076 361.052 151.946 383.129L150.662 384.243C149.774 379.512 141.989 371.887 139.283 367.167C136.445 362.218 134.272 356.375 132.745 350.879C126.044 326.769 132.116 297.771 144.314 276.384Z"/>
	<path fill="#93BA9F" d="M148.735 375.384C142.633 369.698 139.247 360.398 136.743 352.663C129.19 329.328 133.953 301.119 145.002 279.576C154.019 295.516 162.676 313.285 163.18 331.912C163.44 341.549 158.521 368.924 151.805 376.019L151.295 375.793L150.366 372.605C149.121 364.107 148.153 355.616 148.007 347.019C147.937 342.846 148.543 338.515 148.217 334.378C148.098 332.873 147.893 331.664 147.26 330.294L146.487 330.129C143.517 333.595 144.465 342.573 144.809 346.864C145.327 352.828 146.088 358.768 147.091 364.67C147.65 368.073 148.746 371.959 148.735 375.384Z"/>
	<path fill="#5C1532" d="M182.306 612.078C179.006 608.731 176.059 604.874 173.565 600.896C164.347 586.191 159.378 567.636 163.411 550.451C167.071 534.853 176.265 528.345 189.233 520.389L191.919 521.749C189.887 523.145 187.863 524.554 185.848 525.975C193.497 537.143 199.94 549.051 201.185 562.751C202.86 581.18 193.839 598.35 182.306 612.078Z"/>
	<path fill="#93BA9F" d="M180.843 528.884C181.562 533.319 180.39 539.007 180.331 543.583C180.153 557.451 181.178 572.115 184.766 585.542C185.455 567.46 180.547 546.09 185 529.257C192.906 540.961 197.234 553.259 198.432 567.294C198.118 582.909 190.506 595.919 182.34 608.73C182.18 608.568 182.017 608.408 181.86 608.243C171.953 597.814 164.362 573.573 165.148 559.045C165.838 546.27 171.48 537.237 180.843 528.884Z"/>
	<path fill="#5C1532" d="M451.288 48.4182C453.186 48.3802 454.952 48.3781 456.742 49.0904C463.51 51.7832 466.65 59.6561 469.443 65.7934C469.844 65.1506 470.257 64.5147 470.68 63.8861C474.15 58.6987 478.855 53.4265 485.319 52.3198C487.61 51.9276 490.143 52.1483 492.059 53.5698C493.69 54.7797 494.459 56.5963 494.609 58.5828C495.109 65.1997 489.227 71.2756 485.178 75.8539L465.657 96.899C457.317 87.5841 448.875 70.6818 448.352 57.9999C448.195 54.1885 448.629 51.2201 451.288 48.4182Z"/>
	<path fill="#F17D7A" d="M452.346 51.2356C453.425 51.396 454.446 51.6648 455.445 52.1054C462.868 55.379 466.368 67.5132 469.068 74.5005C471.766 67.2891 474.837 60.6741 481.929 56.7262C484.031 55.5561 487.723 54.0858 490.102 55.2116C491.164 55.7141 491.848 56.5497 492.135 57.6873C493.167 61.788 489.074 66.7065 486.762 69.724C480.174 77.8124 472.928 85.3904 465.808 93.0064C460.518 85.4854 456.266 76.4261 453.335 67.7277C451.574 62.5003 449.763 56.4291 452.346 51.2356Z"/>
	<path fill="#5C1532" d="M107.846 554.48C109.315 546.519 112.737 539.541 117.128 532.776C123.529 522.915 132.883 513.261 145.366 512.398C151.095 512.002 156.132 512.53 161.839 511.34L162.668 513.175C160.733 513.885 158.78 514.543 156.81 515.15C155.629 522.958 153.42 529.338 148.558 535.644C138.674 548.462 123.165 552.487 107.846 554.48Z"/>
	<path fill="#93BA9F" d="M146.795 515.171C147.969 515.019 148.7 514.815 149.795 515.373C149.521 516.695 147.236 518.093 146.037 518.855C136.278 525.048 129.47 531.663 123.327 541.534C128.141 537.945 132.272 533.359 136.809 529.416C142.226 524.707 148.219 520.874 154.235 516.994C152.437 522.54 150.355 527.494 147.414 532.537C138.13 545.1 124.821 549.699 110.081 552.982C113.405 544.798 117.421 536.678 122.791 529.63C129.123 521.319 136.394 516.612 146.795 515.171Z"/>
	<path fill="#5C1532" d="M842.927 165.93C844.464 165.989 845.853 166.138 847.195 166.964C852.829 170.435 854.637 178.912 856.21 184.839C860.674 180.456 865.948 175.448 872.318 174.258C874.549 173.842 877.158 173.955 879.057 175.342C880.624 176.487 881.387 178.302 881.546 180.194C882.114 186.979 876.435 193.021 872.342 197.79C865.735 204.056 858.185 208.682 851.257 214.484C845.292 203.937 838.364 186.568 839.26 174.283C839.517 170.756 840.264 168.313 842.927 165.93Z"/>
	<path fill="#F17D7A" d="M843.898 168.725C844.761 169.112 845.627 169.544 846.359 170.153C852.159 174.98 853.169 184.797 854.028 191.737C858.272 187.002 862.933 181.009 868.867 178.399C870.809 177.544 873.65 176.864 875.676 177.857C876.906 178.459 877.764 179.297 878.155 180.644C879.29 184.551 876.015 188.673 873.956 191.702C867.912 199.039 860.095 204.685 852.567 210.389C848.925 204.078 846.308 197.045 844.455 190.013C842.868 183.992 840.563 174.402 843.898 168.725Z"/>
	<path fill="#5C1532" d="M118.301 423.692C132.644 420.805 146.117 431.92 158.664 436.741C162.798 438.33 166.646 439.008 171.041 439.516C162.994 440.407 155.569 442.424 147.79 444.626C146.948 444.836 146.1 445.019 145.247 445.176C127.51 448.423 111.053 443.535 96.5161 433.364C102.602 427.468 109.968 424.564 118.301 423.692Z"/>
	<path fill="#93BA9F" d="M115.464 426.597C130.728 425.495 143.523 432.511 156.787 439.01C151.339 440.804 145.89 442.122 140.216 442.971C125.385 444.039 111.86 440.556 98.9771 433.283C104.248 430.07 109.473 428.031 115.464 426.597Z"/>
	<path fill="#5C1532" d="M203.385 713.17C197.409 707.301 193.531 700.007 190.782 692.146C190.034 690.007 189.181 687.673 190.234 685.516C191.632 684.562 192.237 685.012 193.861 685.296C206 688.914 217.301 695.424 223.609 706.868C225.674 710.615 228.138 717.68 227.173 722.066C227.144 722.198 227.09 722.323 227.048 722.452C226.888 723.475 226.639 724.602 226.586 725.628C226.481 727.65 227.828 730.012 228.68 731.782C229.116 732.688 228.945 732.304 229.319 733.412C229.051 733.437 228.784 733.468 228.515 733.487C228.339 733.5 228.161 733.499 227.984 733.507C227.317 733.538 227.605 733.506 226.903 733.672C225.333 728.93 219.139 724.711 215.307 721.8C211.042 719.343 207.14 716.337 203.385 713.17Z"/>
	<path fill="#93BA9F" d="M192.336 687.416C205.583 692.734 217.046 699.986 222.915 713.582C223.777 715.58 224.392 717.54 224.881 719.664L224.513 723.066L224.151 723.356C218.844 717.995 214.586 712.884 207.701 709.447C211.006 712.566 215.586 716.069 217.964 719.959L217.35 720.077C212.696 717.712 208.997 714.407 205.108 710.969C200.217 705.36 192.319 695.269 192.336 687.416Z"/>
	<path fill="#771D31" d="M151.946 383.129C156.482 393.882 159.773 407.656 163.664 419.071L161.609 419.367C160.061 413.204 157.39 407.076 155.318 401.047C153.424 395.539 152.048 389.895 150.662 384.243L151.946 383.129Z"/>
</svg>
