<?xml version="1.0" encoding="utf-8" ?>
<svg xmlns="http://www.w3.org/2000/svg" xmlns:xlink="http://www.w3.org/1999/xlink" width="1024" height="1024">
	<path fill="#652A4D" d="M748.834 31.7096C773.269 30.1697 789.629 43.5942 809.258 55.4992C817.091 60.2225 825.301 64.2898 833.805 67.6595C837.482 69.1378 841.492 70.5248 845.43 71.0868C849.98 71.7362 857.2 69.6878 861.112 71.9399C861.417 73.4581 861.45 74.4608 860.584 75.8129C855.996 82.9691 838.589 88.2107 830.711 89.7598C838.346 94.9535 847.574 99.5619 856.098 103.116C860.987 105.154 870.984 106.808 874.364 109.637C874.637 110.303 874.996 110.722 874.788 111.456C874.372 112.931 873.058 113.825 871.818 114.588C861.365 121.019 846.438 119.817 835.103 116.883C835.625 117.23 836.14 117.575 836.643 117.949C841.494 121.55 861.655 136.082 862.022 141.038C862.082 141.855 861.641 142.05 861.146 142.62C854.918 144.838 842.703 141.227 836.239 139.677C836.572 139.959 836.905 140.241 837.227 140.535L837.742 141.01C842.176 145.043 844.75 150.376 848.887 154.598C854.884 160.718 861.353 166.377 867.322 172.542C886.343 192.186 896.736 211.686 905.672 237.384C903.046 240.474 901.303 243.687 899.559 247.314C946.89 281.395 975.386 311.347 991.908 368.453C1007.76 422.736 1003.71 480.896 980.482 532.455C935.128 631.892 831.163 697.62 734.804 740.657C690.873 760.279 645.371 776.296 601.222 795.486C552.783 816.646 505.788 840.971 460.545 868.305C435.973 882.887 412.602 899.402 390.652 917.694C383.557 923.534 375.794 929.557 369.71 936.475C361.713 945.567 355.901 970.515 351.898 982.768C350.579 986.807 349.427 991.249 347.295 994.952C346.022 997.164 344.234 999.479 341.55 999.925C340.338 1000.13 338.976 999.649 338.019 998.899C335.312 996.779 335.323 992.893 335.609 989.764C336.181 983.51 337.687 977.369 337.953 971.067C338.611 955.507 334.486 938.737 331.335 923.594C314.112 928.055 294.448 929.249 278.11 920.998C265.417 914.588 259.093 901.556 254.857 888.613C241.714 848.456 251.354 804.264 270.087 767.59C267.679 765.694 265.352 763.68 263.002 761.712L257.756 756.507C243.55 756.216 231.313 754.677 218.681 747.73C224.508 745.641 230.029 743.346 235.382 740.218C229.583 739.17 223.101 738.317 217.814 735.568C216.23 734.744 214.263 733.57 213.688 731.787C215.421 730.014 223.983 730.947 226.754 730.862C219.201 724.063 212.408 715.738 205.527 708.255C187.962 689.216 170.856 669.758 154.223 649.9C72.2285 552.276 9.4637 446.587 21.074 314.521C27.6915 239.246 61.6415 167.675 119.943 118.915C176.478 71.9985 247.044 45.2729 320.476 42.9667C331.58 42.6249 343.103 42.5093 354.173 43.5272C430.537 50.5486 508.391 83.8448 558.213 143.621C593.27 185.682 608.068 234.306 603.097 288.701C626.072 272.384 649.731 258.398 675.329 246.567C680.935 243.976 686.644 241.485 692.436 239.336C700.565 236.32 716.161 232.581 722.475 227.501C731.161 220.513 736.676 183.487 746.411 176.316C749.431 175.96 751.807 178.419 754.028 180.159C756.627 172.996 760.368 166.708 764.722 160.472C755.975 166.545 745.54 170.153 734.831 169.177C724.887 168.271 717.753 163.508 709.44 158.515C706.995 157.046 703.487 155.639 701.771 153.365C698.865 149.515 700.601 141.06 701.148 136.595C699.699 136.738 698.202 136.924 696.745 136.916C691.88 136.886 687.495 134.396 684.166 130.985C677.099 123.743 672.41 112.482 672.529 102.344C672.648 92.2775 677.189 84.4039 684.209 77.5216C684.15 74.9468 684.149 72.3962 684.44 69.8331C685.196 63.1809 688.516 57.2602 695.093 54.9522C697.054 54.2642 699.302 53.9519 700.935 52.601C716.752 39.5139 728.173 34.2092 748.834 31.7096Z"/>
	<path fill="#BD5955" d="M250.552 636.043C227.592 608.212 204.49 574.412 189.159 541.8C160.746 481.359 148.739 404.191 171.913 340.11C189.232 292.218 228.731 252.525 274.55 231.104C325.287 207.384 379.27 205.855 431.704 224.942C491.798 246.69 540.774 291.446 567.834 349.343C564.184 356.481 559.936 363.123 555.259 369.619C552.328 373.689 538.436 389.527 537.927 392.305C537.546 394.381 538.19 396.953 539.676 398.49C541.151 400.017 543.376 400.325 545.312 399.603C550.975 397.492 564.558 383.909 569.897 379.195C585.137 365.739 601.555 353.772 618.11 342.005C666.504 307.605 722.289 273.939 783.001 269.395C796.827 293.486 824.564 324.309 850.068 336.247C849.708 343.382 849.248 350.944 851.288 357.885C852.125 360.733 853.673 364.49 856.628 365.74C858.327 366.459 860.268 366.13 861.868 365.327C868.743 361.878 872.491 351.795 874.556 344.873C876.113 339.653 877.542 333.296 875.742 327.988C874.913 325.543 873.331 323.349 871.564 321.493C868.909 318.705 865.908 316.141 863.419 313.213C857.51 306.258 852.68 297.134 848.302 289.127C870.418 301.949 891.865 322.746 905.723 344.135C929.373 381.06 937.459 425.841 928.215 468.706C921.715 498.931 906.68 527.32 887.986 551.732C874.031 569.998 858.266 586.808 840.931 601.904C801.857 635.673 755.888 661.247 709.923 684.277C661.118 708.73 611.132 730.427 561.876 753.902C529.654 769.26 497.59 784.92 466.611 802.687C446.971 813.95 427.965 826.321 408.917 838.547C405.653 829.348 401.941 820.671 397.463 812.003C400.381 804.976 404.361 798.437 407.835 791.677C410.477 786.536 412.654 781.169 415.229 775.994C417.199 772.034 420.029 767.708 421.163 763.463C421.786 761.13 421.14 758.806 419.883 756.814C417.99 753.813 414.089 748.764 410.437 748.08C407.44 747.519 405.307 749.463 403.079 751.117C401.244 749.896 399.158 748.41 396.844 749.068C389.416 751.18 390.873 769.76 388.915 776.01C387.037 782.003 383.486 787.527 380.335 792.92C361.409 776.925 349.722 762.183 326.047 752.044C325.929 749.42 325.69 746.788 325.503 744.167C336.555 742.062 347.99 740.312 356.735 732.625C366.432 724.101 367.476 713.416 368.222 701.27C370.061 698.779 372.466 695.989 372.294 692.702C372.005 687.216 363.594 684.558 360.094 681.155C359.863 680.93 359.638 680.699 359.409 680.471C357.876 674.712 357.364 668.884 356.49 663.005C355.222 654.49 352.405 644.247 344.989 639.052C338.251 634.332 331.326 636.108 323.777 635.472C321.078 635.245 318.428 633.335 315.805 632.597C307.83 630.355 298.472 632.301 290.577 633.855C276.665 638.25 264.928 644.247 254.877 655.022C252.336 651.133 250.61 647.589 249.296 643.122C249.494 640.69 249.999 638.41 250.552 636.043Z"/>
	<path fill="#FEFEFE" d="M250.552 636.043C262.632 579.049 302.298 498.529 335.454 450.152C349.627 429.104 365.951 409.589 384.163 391.92C405.66 371.422 433.102 349.827 464.42 350.777C475.587 351.116 486.787 354.64 494.588 362.975C502.393 371.313 504.894 381.974 503.848 393.127C502.566 406.788 497.475 420.302 493.636 433.406C488.422 451.016 483.524 468.719 478.944 486.505C469.042 525.946 460.937 568.061 456.843 608.472C454.595 630.656 453.818 652.643 453.01 674.894C452.787 681.032 452.216 688.042 447.228 692.354C443.074 695.946 437.057 696.372 431.837 695.778C423.964 694.881 417.045 690.736 412.188 684.526C394.383 661.768 403.261 601.674 406.726 574.489L296.599 612.801C294.157 619.656 292.458 626.83 290.577 633.855C276.665 638.25 264.928 644.247 254.877 655.022C252.336 651.133 250.61 647.589 249.296 643.122C249.494 640.69 249.999 638.41 250.552 636.043Z"/>
	<path fill="#BD5955" d="M454.579 385.189C454.765 385.264 455.227 385.804 455.377 385.957C455.567 392.213 447.875 409.358 445.557 416.088C442.348 425.403 439.296 434.784 436.238 444.151C428.49 467.715 422.028 491.683 416.879 515.948C414.621 526.353 412.85 536.845 410.687 547.268C401.007 551.809 390.533 554.191 380.437 557.625L337.119 572.708C327.839 575.925 318.467 578.861 309.273 582.325L308.716 582.242L308.36 581.253C309.58 574.243 314.526 566.944 317.557 560.5C335.4 522.561 353.857 485.457 379.092 451.746C393.894 431.974 417.993 401.973 439.572 390.138C444.334 387.527 449.217 385.962 454.579 385.189Z"/>
	<path fill="#FEFEFE" d="M679.779 344.578C682.381 344.338 684.677 344.693 687.049 345.852C692.643 348.585 693.769 353.478 693.06 359.222C691.234 374.014 680.222 398.848 674.82 414.004C659.048 458.257 612.682 583.907 628.01 624.25C630.184 629.971 633.428 632.488 638.876 634.937C653.409 630.634 665.53 616.898 668.16 601.975C669.777 592.805 669.179 583.253 670.61 573.967C673.753 553.574 684.352 494.225 698.693 479.713C706.228 472.088 717.636 468.459 728.189 468.418C732.999 468.399 738.541 469.032 742.019 472.716C744.989 475.862 745.599 480.355 744.827 484.466C743.305 492.58 738.205 503.766 735.517 512.319C725.068 545.571 713.959 579.657 712.96 614.801C712.82 619.716 712.23 630.435 716.309 633.952C717.551 635.022 719.026 635.274 720.587 634.973C724.737 634.174 728.765 630.381 731.764 627.552C750.484 609.896 756.427 591.349 769.611 570.889C771.796 572.486 774.475 574.263 775.095 577.087C777.081 586.132 759.975 615.66 754.978 624.221C754.8 624.553 754.618 624.884 754.422 625.207C745.787 639.474 734.547 651.955 717.728 656.046C707.468 658.541 695.932 656.775 686.967 651.162C677.253 645.081 672.63 635.896 670.148 625.021C665.684 631.754 661.295 638.657 655.14 643.996C647.548 650.582 637.239 654.232 627.188 653.471C616.523 652.663 606.274 647.229 599.395 639.084C584.58 621.543 588.097 595.822 589.884 574.656C577.089 597.148 565.713 622.273 546.305 640.007C536.786 648.705 524.118 655.582 510.877 654.856C500.38 654.281 490.822 648.728 483.945 640.957C472.562 628.095 468.82 610.265 469.922 593.499C472.25 558.098 492.13 522.213 518.626 499.023C545.118 475.838 579.068 467.877 613.563 470.155C616.875 461.235 619.255 451.974 622.226 442.934C626.099 431.149 630.703 419.601 635.183 408.037C641.137 392.667 646.878 376.839 655.663 362.808C661.928 352.801 668.05 347.258 679.779 344.578Z"/>
	<path fill="#BD5955" d="M606.339 489.146C607.421 488.944 608.135 488.958 609.216 489.162L608.524 489.551L609.293 490.343C606.374 502.554 602.928 515.109 597.736 526.58C587.608 548.952 548.79 609.426 529.417 621.216C526.043 623.269 523.523 624.198 519.635 623.269C516.742 620.606 515.471 617.212 514.849 613.37C510.717 587.825 526.03 557.8 540.514 537.418C556.374 515.099 578.442 493.9 606.339 489.146Z"/>
	<path fill="#652A4D" d="M815.281 396.543C821.509 396.317 827.38 396.489 833.139 399.143C843.126 403.748 846.848 413.346 850.517 422.902C853.614 419.629 856.761 416.554 860.521 414.045C867.892 409.126 877.243 406.598 886.037 408.508C892.882 409.995 898.893 413.801 902.556 419.856C906.164 425.82 906.714 432.52 905.099 439.197C900.322 458.944 882.2 469.977 866.093 479.881C856.594 485.074 846.834 490.502 838.933 497.995C836.044 500.736 829.798 510.114 827.747 511.129C827.077 511.461 826.828 511.224 826.177 511.032C825.793 510.647 824.916 509.981 824.685 509.535C823.204 506.676 823.194 496.338 820.294 489.966C813.719 475.517 800.956 464.675 795.025 449.611C790.625 438.434 790.231 425.307 795.103 414.194C799.124 405.022 806.192 400.01 815.281 396.543Z"/>
	<path fill="#EE8078" d="M817.99 402.524C821.873 402.422 825.236 402.596 828.932 404.028C838.265 407.642 841.844 416.231 843.787 425.276C844.331 427.806 844.673 430.851 845.781 433.177C846.364 434.399 846.995 434.976 848.253 435.407C849.719 434.694 858.715 423.445 862.855 420.369C868.73 416.005 876.074 413.053 883.485 414.263C888.638 415.104 893.741 418.006 896.691 422.379C899.575 426.655 899.889 431.608 898.929 436.552C896.112 451.062 883.68 460.784 872.17 468.608C857.078 477.244 842.321 485.359 830.107 498.001C823.634 478.676 808.276 464.943 801.143 446.227C797.382 436.355 796.721 425.626 801.275 415.884C804.794 408.355 810.495 405.137 817.99 402.524Z"/>
	<path fill="#652A4D" d="M287.548 310.165C291.492 310.306 295.371 310.6 299.093 312.016C306.106 314.684 310.395 320.266 313.323 326.918C324.993 353.432 296.547 377.508 285.582 399.013C282.034 405.97 282.798 414.134 279.661 420.635C279.185 421.621 278.682 422.409 277.495 422.543C277.359 422.558 276.008 422.456 275.814 422.358C275.45 422.176 264.601 409.313 261.889 407.047C257.219 403.144 251.946 400.133 246.721 397.052C237.844 391.717 228.88 386.309 221.287 379.194C212.916 371.352 206.225 360.42 205.952 348.685C205.793 341.846 207.911 334.81 212.799 329.87C216.762 325.864 221.885 323.997 227.465 323.905C239.498 323.707 248.936 330.737 257.053 338.849C259.425 333.668 261.765 328.384 265.171 323.781C270.772 316.211 278.227 311.547 287.548 310.165Z"/>
	<path fill="#EE8078" d="M289.906 316.679C291.444 316.893 292.91 317.219 294.38 317.731C299.714 319.588 303.821 323.444 306.189 328.531C316.319 350.299 295.126 369.254 284.784 386.117C280.397 393.271 277.667 401.111 274.758 408.938C263.91 398.403 250.873 391.087 238.08 383.217C233.142 379.805 228.228 376.262 224.038 371.938C217.632 365.326 212.686 356.209 213.035 346.78C213.202 342.251 214.721 337.76 218.135 334.648C221.337 331.731 225.682 330.708 229.921 331.044C238.25 331.704 245.694 336.704 251.222 342.709C252.955 344.592 254.317 346.777 256.06 348.658C257.258 349.95 258.187 350.464 259.997 350.53C260.43 350.309 260.935 350.193 261.296 349.868C262.726 348.582 266.235 333.894 270.153 328.485C275.041 321.736 281.796 318.091 289.906 316.679Z"/>
	<path fill="#652A4D" d="M381.317 247.536C382.839 247.456 384.364 247.443 385.887 247.497C393.13 247.774 400.479 251.114 405.269 256.569C412.441 264.737 411.611 274.323 410.943 284.317C413.25 283.285 415.61 282.378 418.014 281.6C426.618 278.894 437.322 278.277 445.432 282.797C450.643 285.702 454.357 290.781 455.888 296.514C457.544 302.711 456.184 309.161 453.023 314.636C446.722 325.55 434.986 329.39 423.511 332.518C410.408 335.187 396.324 334.672 383.951 340.374C379.481 342.433 375.977 346.116 371.734 348.132C370.778 348.586 370.616 348.476 369.677 348.148C369.312 347.588 369.189 347.463 368.949 346.768C368.63 345.84 371.448 332.457 371.086 327.668C370.645 321.821 368.769 316.177 367.153 310.579C362.544 294.615 358.194 277.829 365.457 261.894C368.796 254.567 373.829 250.276 381.317 247.536Z"/>
	<path fill="#F4D278" d="M382.534 254.059C387.594 253.923 392.445 255.12 396.672 257.931C410.884 267.384 401.035 281.772 403.281 292.924C406.169 295.41 427.345 282.58 439.998 288.014C443.882 289.682 447.199 293.099 448.746 297.038C450.461 301.404 449.896 306.323 447.856 310.476C444.595 317.114 438.709 320.328 432.086 322.705C414.359 328.075 396.008 328.998 378.443 335.417C378.713 313.15 362.964 291.514 369.743 269.266C371.916 262.137 376.079 257.532 382.534 254.059Z"/>
	<path fill="#FEFEFE" d="M739.911 402.688C745.818 403.057 751.552 403.799 756.568 407.271C760.716 410.114 763.546 414.507 764.419 419.46C765.394 425.149 764.061 430.991 760.714 435.693C755.796 442.709 748.659 445.395 740.621 446.857C734.474 447.462 728.287 447.201 723.139 443.319C718.881 440.108 716.392 435.103 715.736 429.871C714.977 423.441 716.778 416.971 720.749 411.858C725.694 405.578 732.303 403.492 739.911 402.688Z"/>
	<path fill="#EE8078" d="M890.695 256.934C896.212 257.953 901.952 264.09 906.187 267.558C919.321 278.314 932.152 288.836 943.207 301.814C977.313 341.854 992.529 403.036 988.238 454.858C985.178 491.812 971.061 527.449 951.521 558.69C901.034 639.412 810.327 693.222 725.136 730.751C705.145 739.557 684.622 747.164 664.357 755.31C633.777 767.585 603.48 780.556 573.491 794.212C502.084 827.24 433.692 864.746 373.239 915.618L372.675 915.956L372.053 915.614C372.269 911.251 375.151 906.79 376.274 902.499C378.65 893.421 379.623 884 382.005 874.897C389.677 867.342 399.751 861.207 408.657 855.198C425 844.017 441.683 833.343 458.685 823.192C505.346 796.011 553.349 771.2 602.511 748.855C703.279 701.851 822.739 655.479 893.203 565.826C926.903 522.949 950.697 469.331 943.781 413.789C938.368 368.793 916.087 327.526 881.436 298.316C870.838 289.448 858.675 282.841 847.806 274.374C863.595 271.107 877.471 266.315 890.695 256.934Z"/>
	<path fill="#F4D278" d="M330.804 133.711C338.687 133.158 346.651 133.803 354.519 134.336C392.691 136.659 429.804 147.797 462.947 166.876C506.848 191.988 543.698 227.779 570.08 270.929C576.228 280.906 582.901 291.599 586.015 302.961C584.678 309.279 582.66 315.553 579.516 321.209C560.78 278.744 530.845 242.175 492.918 215.42C441.72 178.59 377.872 161.147 315.259 171.377C250.891 182.331 193.377 218.071 155.052 270.933C116.339 324.873 106.277 391.889 116.946 456.612C120.587 474.009 124.19 491.089 130.032 507.914C148.577 561.329 180.482 609.646 215.634 653.537C224.024 664.014 232.508 674.653 241.66 684.47C239.874 691.123 239.782 698.62 239.214 705.469C219.715 685.723 201.254 664.532 183.463 643.242C128.639 577.633 84.8291 508.485 77.8782 421.278C72.1462 349.363 89.8696 287.174 137.139 231.893C175.013 187.6 227.879 153.092 284.941 139.932C300.079 136.441 315.339 134.906 330.804 133.711Z"/>
	<defs>
		<linearGradient id="gradient_0" gradientUnits="userSpaceOnUse" x1="209.73297" y1="709.48126" x2="373.71951" y2="96.274231">
			<stop offset="0" stop-color="#E88A6D"/>
			<stop offset="1" stop-color="#EDAC76"/>
		</linearGradient>
	</defs>
	<path fill="url(#gradient_0)" d="M325.625 93.208C339.939 91.7562 356.483 94.1479 370.658 96.4653C450.875 109.58 518.553 158.447 565.484 223.693C574.737 236.556 589.744 257.401 590.8 273.259C591.219 279.557 589.715 286.059 588.702 292.25C583.041 282.326 578.367 272.026 572.271 262.292C546.951 222.403 512.755 188.905 472.352 164.413C414.909 129.383 345.945 118.489 280.502 134.109C210.392 150.967 144.803 200.121 107.378 261.55C67.7172 326.65 62.4662 402.371 80.1711 475.385C82.9478 485.684 85.7631 495.96 89.5334 505.949C92.9563 515.018 97.2788 523.774 101.488 532.498C124.963 581.161 157.131 623.146 192.614 663.56C206.386 679.245 220.152 694.937 234.945 709.678C233.288 712.098 231.18 714.302 229.265 716.528C212.954 700.348 198.141 682.525 183.033 665.223C162.873 642.136 142.857 618.706 124.672 594.009C83.5468 538.158 41.548 462.351 35.9158 391.884C34.7452 377.238 37.9516 362.478 40.8469 348.192C51.988 293.221 74.0939 242.285 110.688 199.436C151.323 151.854 212.462 114.801 273.348 100.425C290.365 96.4075 308.21 94.5664 325.625 93.208Z"/>
	<path fill="#E69AB2" d="M243.634 676.061C233.629 665.87 224.895 654.575 216.148 643.313C187.298 606.172 161.659 566.571 143.049 523.254C115.969 460.221 109.519 384.32 135.413 319.769C157.745 264.096 206.352 217.604 261.306 194.274C318.453 170.012 380.163 168.893 437.683 192.311C501.18 218.164 549.594 267.687 576.073 330.545C574.587 333.743 573.061 336.922 571.493 340.081C565.131 329.274 558.923 318.279 551.797 307.952C536.819 286.251 517.631 267.506 496.523 251.811C449.832 217.093 389.825 197.891 331.646 206.566C276.76 214.749 224.059 245.244 190.962 290.048C155.588 337.933 147.756 396.86 156.413 454.604C165.747 516.861 186.385 557.715 221.553 608.876C228.874 619.525 238.992 635.502 249.296 643.122C250.61 647.589 252.336 651.133 254.877 655.022C250.176 661.713 246.498 668.399 243.634 676.061Z"/>
	<path fill="#EE8078" d="M322.726 55.7163C388.135 53.2817 461.317 77.1405 512.778 117.512C546.125 143.673 573.412 178.543 584.39 219.995C587.118 230.297 588.455 240.66 589.722 251.217C557.279 186.46 492.852 130.133 425.68 103.785C359.401 77.7877 285.029 83.116 220.378 111.23C199.773 119.784 179.461 131.275 161.25 144.155C88.6502 195.501 47.8226 269.588 32.9244 356.248C32.6407 353.283 32.5113 350.292 32.3555 347.318C28.7969 279.413 58.4137 201.936 103.696 151.696C147.227 103.397 209.007 72.9923 272.5 61.2265C289.159 58.1395 305.82 56.5848 322.726 55.7163Z"/>
	<path fill="#BD5955" d="M746.84 37.2017C773.17 33.3281 793.062 53.5812 814.685 64.6209C826.392 70.5977 838.234 74.2491 851.072 76.7749C841.026 82.7676 829.224 83.9395 817.885 85.6883C811.267 82.3777 805.289 77.7917 798.888 74.0625C801.568 77.8042 804.231 81.1082 807.758 84.0929C821.981 96.1306 847.003 105.236 864.502 112.255C847.394 114.32 834.617 112.958 820.369 102.708C817.881 100.918 815.044 98.3285 811.899 98.0534L811.298 98.6651C811.591 109.222 847.513 130.514 849.713 136.707C843.07 142.723 812.025 119.739 803.007 119.56L802.415 120.22C802.446 120.411 802.454 120.608 802.508 120.794C804.364 127.131 826.342 139.301 832.4 142.933C834.296 144.108 836.841 145.462 837.777 147.568L837.037 148.058C828.651 147.604 787.992 130.683 782.3 125.275C772.671 116.127 767.639 103.473 758.016 94.5688C743.698 81.3207 727.091 86.786 709.768 84.0291C704.188 83.1411 699.029 80.743 693.834 78.6185C694.391 79.5941 694.952 80.576 695.585 81.505C704.141 94.0575 727.17 88.3165 740.068 90.9958C758.323 94.7883 767.463 112.62 776.855 126.967C767.836 118.931 761.168 105.429 750.144 100.253C749.858 100.119 749.57 99.9912 749.285 99.8553C736.046 93.5367 718.767 103.686 701.635 92.1018C695.793 88.1515 690.746 82.0117 689.486 74.9413C688.83 71.2621 688.901 66.922 691.285 63.8366C693.844 60.5228 696.891 60.1094 700.757 59.7208C714.766 48.5081 728.518 39.042 746.84 37.2017Z"/>
	<path fill="#8EC5AE" d="M793.472 139.624C796.021 139.473 798.321 139.963 800.757 140.714C805.447 142.16 809.825 144.562 814.393 146.349C821.93 149.299 829.887 151.542 837.13 155.18C854.885 164.099 875.958 189.724 885.968 206.874C891.031 215.549 894.93 224.572 898.126 234.076C880.232 241.037 863.624 238.382 845.579 233.334C839.581 231.596 833.755 229.846 827.494 229.371C815.694 218.889 808.518 204.995 802.595 190.626C804.916 184.059 807.817 177.482 808.57 170.496C808.812 168.254 808.751 165.194 807.302 163.368L806.483 163.516C802.821 167.747 799.928 181.275 797.293 187.294L796.924 188.125C786.869 181.817 776.19 177.277 765.349 172.571C769.003 165.432 771.804 157.702 776.19 150.958C780.587 144.196 785.736 141.283 793.472 139.624Z"/>
	<path fill="#F4D278" d="M295.772 755.675C299.652 755.125 303.539 755.367 307.441 755.507C302.883 759.239 299.059 762.936 297.503 768.875C292.435 788.218 311.689 803.863 319.089 819.549C321.213 824.05 322.61 829.018 324.254 833.722C327.382 842.667 330.904 851.041 335.819 859.186C324.779 867.753 312.159 874.177 299.298 879.519C286.892 884.56 274.648 886.865 261.326 887.554C257.881 875.55 256.018 863.148 255.784 850.663C255.606 824.817 261.117 799.249 271.927 775.772C274.836 769.472 277.843 763.157 282.741 758.141C287.042 756.928 291.357 756.289 295.772 755.675Z"/>
	<path fill="#EE8078" d="M804.417 230.25C808.701 229.863 813.016 230.035 817.312 230.104C809.87 232.246 802.012 234.501 795.215 238.246C787.342 242.583 783.574 248.275 781.17 256.766C775.697 258.03 769.96 258.629 764.414 259.579C755.321 261.197 746.301 263.203 737.38 265.592C690.55 278.619 647.916 304.15 609.075 332.818C602.47 337.693 595.78 342.517 589.369 347.646C585.589 350.669 582.063 354.117 578.15 356.95L577.818 357.186C580.26 350.958 584.138 345.103 586.987 339.008C591.471 329.42 594.729 319.431 597.866 309.34C606.45 301.488 616.633 295.079 626.406 288.84C652.398 272.247 679.131 257.991 707.767 246.528C708.115 249.359 708.467 251.794 710.668 253.807C715.362 258.101 727.623 258.528 733.742 258.36C748.605 257.952 756.258 244.017 765.46 234.377C778.295 231.715 791.357 230.946 804.417 230.25Z"/>
	<path fill="#E69AB2" d="M351.335 838.481C356.085 840.268 360.842 845.089 365.259 847.815L371.341 846.238C372.539 862.913 368.397 885.767 362.667 901.557C349.361 910.007 334.498 915.705 318.955 918.318C303.724 920.941 288.247 920.39 275.277 911.195C269.833 905.991 266.713 900.338 263.474 893.583C268.347 893.173 273.235 892.789 278.076 892.088C304.938 888.2 335.177 871.669 351.491 849.891C347.588 850.965 343.979 852.243 340.261 853.849C338.451 851.096 337.04 848.346 335.81 845.294L351.335 838.481Z"/>
	<path fill="#F4D278" d="M824.677 234.057C830.199 234.039 835.51 236.957 840.709 238.597C858.946 244.35 878.246 246.253 896.8 241.015L896.359 241.681C882.293 262.505 856.789 266.952 833.797 271.289C830.935 268.378 828.02 265.22 824.9 262.595C823.106 261.085 819.021 258.592 816.593 258.979C815.962 259.08 816.116 259.135 815.789 259.733C816.289 265.835 826.249 273.086 830.197 277.487C832.816 280.406 835.144 283.536 837.43 286.718C843.345 296.006 849.533 305.118 855.985 314.042C852.621 318.284 849.479 322.614 846.396 327.063C829.882 315.284 794.099 284.431 788.292 264.989C786.926 260.417 787.061 255.568 789.488 251.37C795.017 241.806 814.575 236.996 824.677 234.057Z"/>
	<path fill="#FEFEFE" d="M334.136 652.136C340.719 655.32 346.797 665.633 349.877 671.897C351.971 676.155 353.762 681.221 356.737 684.96C359.503 688.436 364.146 690.69 367.704 693.363L362.549 699.49C362.718 705.094 362.907 710.575 361.267 716.002C357.629 728.045 346.303 735.569 334.306 737.612C330.507 738.259 325.653 738.062 322.273 739.976C318.621 742.044 321.477 747.142 320.441 750.517C319.338 751.589 319.169 751.488 317.614 751.657C308.314 750.704 298.797 749.685 289.484 750.972C293.009 747.306 296.095 743.591 298.377 739.017C305.997 723.744 301.204 708.279 296.06 693.121C304.886 692.545 312.923 690.343 319.859 684.63C330.276 676.049 332.982 665.01 334.136 652.136Z"/>
	<path fill="#652A4D" d="M340.589 673.273C342.208 673.477 343.41 673.604 344.682 674.695C348.343 677.837 350.408 683.367 350.517 688.098C350.583 690.967 349.949 692.46 348.013 694.542C346.178 694.559 344.595 694.413 343.052 693.362C340.119 691.364 338.613 687.878 338.105 684.469C337.475 680.243 338.035 676.706 340.589 673.273Z"/>
	<path fill="#652A4D" d="M333.094 706.22C334.849 706.305 335.787 706.326 337.154 707.456C337.691 709.223 337.93 710.504 339.475 711.618C341.545 711.818 342.957 707.247 344.978 706.126C346.196 706.321 346.276 706.396 347.006 707.39C348.122 708.91 347.963 710.141 347.794 711.935C346.813 713.512 345.791 715.103 344.228 716.161C342.391 717.405 339.975 717.927 337.804 717.4C335.958 716.95 334.383 715.754 333.452 714.097C331.954 711.443 332.396 709.041 333.094 706.22Z"/>
	<path fill="#FEFEFE" d="M695.004 94.8046C703.01 98.3315 709.624 102.849 718.468 104.338C727.724 105.895 738.332 100.807 747.075 104.782C755.534 108.627 761.448 118.131 767.88 124.578C772.401 129.109 777.148 132.538 782.784 135.539C776.538 140.816 772.155 147.724 765.462 152.481C759.281 156.462 752.994 160.188 745.773 161.913C731.774 165.256 720.365 159.797 708.709 152.562C709.375 152.084 710.046 151.607 710.692 151.102C711.728 150.293 712.887 149.348 713.042 148.006L712.095 147.725C709.455 148.081 707.439 149.412 705.192 150.734C705.372 145.167 705.778 139.431 704.816 133.918C703.773 127.944 701.202 122.429 699.244 116.726C696.765 109.505 695.564 102.401 695.004 94.8046Z"/>
	<path fill="#873240" d="M732.579 133.063C733.797 132.418 735.06 131.646 736.497 132.01C738.669 132.561 740.231 134.955 741.136 136.843C742.605 139.905 744.073 144.817 742.875 148.151C742.779 148.417 742.672 148.679 742.57 148.943C740.953 149.399 739.299 149.841 737.608 149.877C734.25 149.949 729.636 149.07 727.27 146.544C726.163 145.362 725.585 143.843 725.721 142.221C726.072 138.037 729.626 135.528 732.579 133.063Z"/>
	<path fill="#652A4D" d="M732.579 133.063C733.797 132.418 735.06 131.646 736.497 132.01C738.669 132.561 740.231 134.955 741.136 136.843C742.605 139.905 744.073 144.817 742.875 148.151C742.779 148.417 742.672 148.679 742.57 148.943C739.605 146.308 738.42 141.032 736.277 137.625C735.247 135.988 733.856 134.511 732.579 133.063Z"/>
	<path fill="#652A4D" d="M709.407 122.632C709.055 122.011 708.892 121.432 708.685 120.752C709.113 118.292 710.204 116.676 712.043 114.987C715.17 112.115 720.573 108.897 724.841 109.06L725.121 109.664C721.574 113.868 715.055 115.233 711.591 119.749C713.895 118.703 715.971 117.378 718.557 118.239C720.168 118.794 721.491 119.969 722.231 121.504C723.288 123.741 723.365 126.662 722.429 128.953C721.807 130.475 720.97 131.226 719.467 131.912C717.321 132.035 716.084 131.481 714.462 130.089C712.15 128.104 710.829 125.272 709.407 122.632Z"/>
	<path fill="#F4D278" d="M231.525 734.669C235.887 731.657 240.31 728.244 242.895 723.508C245.545 718.654 245.839 712.914 246.049 707.513C246.718 690.239 246.961 674.433 258.638 660.433C271.308 645.242 289.422 639.22 308.534 637.377C304.395 661.9 299.949 673.511 280.543 689.345L278.462 690.733C278.934 675.952 283.988 662.006 289.485 648.44C273.542 667.653 273.283 682.501 275.326 706.404C275.964 713.863 276.479 721.398 274.845 728.773C273.219 736.11 269.43 743.263 262.828 747.238C252.552 753.424 241.167 751.342 230.232 748.526C239.227 743.549 247.289 738.102 253.273 729.548C261.844 717.294 260.877 702.048 258.426 687.989C256.942 699.093 258.218 712.91 252.281 722.786C247.632 730.521 239.629 732.562 231.525 734.669Z"/>
	<path fill="#F4D278" d="M312.394 758.525C314.882 758.481 317.287 758.901 319.74 759.264C326.371 766.448 331.618 774.635 337.236 782.6C343.778 791.817 350.368 801 357.006 810.149C353.089 815.765 348.198 820.056 342.877 824.305C340.371 826.104 337.856 827.89 335.331 829.662C325.724 820.805 317.491 808.131 310.737 796.962C305.929 789.011 300.361 778.635 302.987 769.02C304.446 763.678 307.789 761.063 312.394 758.525Z"/>
	<path fill="#FEFEFE" d="M766.991 179.876C773.005 182.752 779.328 184.888 785.244 188.009C774.931 208.645 757.012 237.234 739.329 252.17L732.015 251.959C727.554 251.752 722.548 251.814 718.245 250.494C716.987 250.108 715.362 249.554 714.745 248.357C717.989 244.559 729.455 243.844 734.284 243.03C748.715 226.628 758.47 199.887 766.991 179.876Z"/>
	<path fill="#FEFEFE" d="M408.811 754.434L409.198 754.92C408.724 759.589 405.809 765.134 404.074 769.579C407.155 765.347 410.233 761.062 413.915 757.329L409.649 766.85C411.34 765.167 412.942 763.411 414.991 762.161L415.413 762.417C414.848 765.04 411.319 766.636 409.49 768.532C410.266 768.681 410.625 768.752 411.307 769.183C411.406 769.665 411.457 769.751 411.38 770.314C410.915 773.713 407.396 778.987 405.833 782.107C395.477 802.789 383.617 825.854 366.013 841.297L360.425 837.068C356.613 833.673 352.824 830.254 349.057 826.81C353.512 823.116 357.287 818.774 361.005 814.357C362.155 816.927 362.569 819.718 363.627 822.297C364.15 823.571 364.587 824.063 365.81 824.637C371.844 821.844 393.081 783.676 395.149 775.965C396.776 769.896 394.096 761.583 397.322 756.199L397.983 756.205C399.168 759.765 398.603 764.692 398.622 768.462L399.519 769.312C403.774 767.976 406.329 758.636 408.541 754.881C408.629 754.731 408.721 754.583 408.811 754.434Z"/>
	<path fill="#CA8D36" d="M278.462 690.733L280.543 689.345C284.313 691.62 287.871 692.453 292.127 693.214C295.761 707.552 300.682 724.11 292.403 737.805C287.415 746.055 278.707 750.696 269.517 752.746C267.012 753.305 264.433 753.539 261.875 753.701C270.773 748.289 276.702 743.033 279.259 732.574C282.587 718.964 278.762 704.518 278.462 690.733Z"/>
	<path fill="#CA8D36" d="M311.026 637.782C313.797 638.065 316.867 638.647 319.45 639.691C323.182 641.197 326.235 643.81 327.739 647.598C330.109 653.564 328.478 660.939 325.991 666.651C321.863 676.134 314.85 682.487 305.328 686.292C300.098 687.821 294.975 687.994 289.582 687.551C293.408 684.691 297.084 681.44 300.15 677.767C309.56 666.489 312.27 652.098 311.026 637.782Z"/>
	<path fill="#BD5955" d="M327.599 759.89C342.938 761.795 367.445 787.762 377.95 799.209C376.3 802.129 374.492 804.935 372.673 807.752L368.591 814.064C361.47 806.201 355.482 797.685 349.184 789.182C341.881 779.497 334.686 769.733 327.599 759.89Z"/>
	<path fill="#FEFEFE" d="M791.903 191.321C800.21 195.865 806.185 210.737 810.781 218.986C804.735 218.997 798.67 219.286 792.625 219.471C786.296 219.385 779.857 220.239 773.598 221.115C779.898 211.32 785.741 201.208 791.903 191.321Z"/>
	<path fill="#BD5955" d="M685.147 82.9298C687.386 85.5911 689.128 88.7239 690.956 91.6801C690.996 105.192 693.969 116.361 698.625 128.908C695.954 126.816 693.1 124.907 690.335 122.938C690.042 123.011 689.845 123.291 689.613 123.485L690.086 126.949L689.706 127.413C689.406 127.25 689.089 127.116 688.806 126.925C684.461 123.987 679.43 112.903 678.537 107.741C676.892 98.2267 679.721 90.4943 685.147 82.9298Z"/>
	<path fill="#FEFEFE" d="M748.438 183.249L755.657 187.4C750.505 202.471 739.877 223.316 731.927 237.307L724.618 238.253C722.446 238.85 719.786 238.914 717.528 239.209C721.397 236.445 725.224 233.867 728.207 230.093C736.75 219.283 742.935 196.725 748.438 183.249Z"/>
	<path fill="#BD5955" d="M388.39 824.518C393.84 829.728 395 841.273 396.381 848.339C391.471 851.389 386.842 854.952 382.159 858.338C381.542 858.771 380.818 859.117 380.161 859.49C377.708 858.276 378.284 850.466 377.699 847.758C377.214 845.513 376.099 843.409 375.089 841.36C380.004 836.142 384.144 830.277 388.39 824.518Z"/>
	<path fill="#FEFEFE" d="M858.738 320.416C863.055 323.263 867.68 325.964 869.142 331.307C871.448 339.734 865.817 350.427 861.663 357.449C861.392 357.686 860.998 358.058 860.672 358.199C859.57 358.674 859.2 358.376 858.284 357.829C854.483 351.43 856.114 339.358 856.538 332.063L852.24 329.664C854.461 326.62 856.628 323.537 858.738 320.416Z"/>
	<path fill="#F4D278" d="M359.862 910.496L360.423 911.233C359.721 917.128 357 923.515 355.284 929.275C353.1 936.711 351.149 944.214 349.433 951.773L348.644 946.117C347.698 936.767 345.011 928.106 342.412 919.115C348.387 916.575 354.213 913.697 359.862 910.496Z"/>
	<path fill="#F4D278" d="M330.382 640.398C334.553 640.527 338.354 641.21 341.877 643.581C348.469 648.018 350.684 655.942 352.199 663.279C346.548 660.471 334.906 645.801 330.382 640.398Z"/>
	<path fill="#BD5955" d="M328.149 828.73C331.009 829.827 333.585 833.109 335.645 835.299C338.725 833.478 342.033 830.889 345.747 831.063C346.779 831.659 347.015 831.491 347.367 832.691L346.256 833.717C341.68 835.948 337.139 838.148 332.391 840.001C330.658 836.389 329.455 832.514 328.149 828.73Z"/>
	<path fill="#CB7549" d="M238.234 714.907C238.628 715.291 238.376 715.001 238.756 715.935C238.451 718.259 237.888 720.532 236.426 722.422C235.681 723.385 235.841 723.153 234.774 723.276C233.73 721.867 233.068 721.351 232.959 719.572C233.854 717.564 236.473 716.167 238.234 714.907Z"/>
</svg>
