<?xml version="1.0" encoding="utf-8" ?>
<svg xmlns="http://www.w3.org/2000/svg" xmlns:xlink="http://www.w3.org/1999/xlink" width="1024" height="1024">
	<path fill="#F8F3EA" d="M286.671 511.632C286.644 511.475 286.621 511.318 286.591 511.161C284.505 500.087 270.166 483.193 263.556 473.311C259.867 467.697 256.337 461.98 252.97 456.167C244.468 441.513 236.697 426.448 229.683 411.026C203.327 354.081 190.904 297.126 207.631 235.431C213.322 214.442 221.573 194.614 233.651 176.47C261.612 134.468 305.658 109.35 354.489 99.6812C406.458 89.3906 469.921 92.9947 514.973 123.505C544.71 143.645 566.607 174.038 573.204 209.671C578.171 236.498 573.286 261.316 567.458 287.448C586.049 273.696 604.54 260.701 625.185 250.13C683.654 220.19 760.817 206.713 825.879 216.513C869.877 223.14 914.714 241.88 941.767 278.708C963.777 308.671 969.983 347.711 964.43 383.943C955.147 444.513 913.704 492.733 865.612 527.8C818.318 562.285 763.64 587.636 709.851 610.204C647.828 636.227 584.39 658.705 522.196 684.315C480.339 701.688 439.582 721.597 400.149 743.932C368.836 761.261 342.742 773.485 319.26 801.724C324.568 786.308 333.858 772.893 338.076 757.002C354.311 695.834 335.438 613.536 308.307 557.897C305.879 552.918 303.581 547.709 300.775 542.945C294.635 583.414 288.818 595.201 255.746 619.693C254.923 620.302 254.094 620.903 253.259 621.496C255.703 629.114 257.612 636.895 258.97 644.78C260.936 655.654 262.057 667.26 266.809 677.336L260.853 680.281C275.136 732.199 279.343 768.831 267.149 821.644C265.038 830.965 262.776 840.251 260.365 849.499C258.464 856.846 256.014 864.656 255.174 872.203L255.502 872.858C258.104 878.152 257.805 884.615 260.658 889.475C263.42 894.178 268.443 896.797 271.403 901.271C271.571 901.526 271.747 901.776 271.913 902.032C272.017 902.19 272.113 902.352 272.213 902.513C271.584 904.886 271.23 906.924 268.952 908.241C265.129 910.452 258.191 908.77 254.135 907.458C246.473 904.979 234.003 898.069 230.431 890.553C229.531 888.66 229.549 886.762 230.244 884.802C232.019 879.797 236.771 876.204 238.196 871.068C241.203 860.236 239.134 843.721 239.049 832.249C238.942 825.164 239.553 818.087 240.873 811.125C234.795 811.42 229.177 810.005 223.523 807.918C217.978 811.995 212.452 816.145 206.642 819.841C190.41 830.168 161.091 845.243 157.762 866.082C156.961 871.102 160.843 878.87 156.642 882.231C154.92 883.609 152.886 884.706 150.606 884.345C147.594 883.868 145.292 881.065 143.708 878.673C139.439 872.226 134.298 853.524 136.274 846.002C136.647 844.585 137.433 843.637 138.717 842.945C144.189 839.999 151.163 841.533 156.791 838.071C165.106 832.957 171.488 816.971 177.844 809.168C182.784 803.102 188.831 798.26 194.447 792.878C183.601 790.522 171.628 790.908 161.246 787.05C155.276 784.832 150.599 780.151 144.767 777.89C141.366 776.571 134.668 776.905 132.456 773.744C133.183 770.529 140.757 765.572 143.3 763.262C153.356 754.127 160.131 739.028 171.399 731.835C175.619 729.141 180.58 727.672 184.76 724.938C191.638 720.439 202.356 707.663 205.051 700.078C203.65 696.55 203.126 695.145 204.635 691.456C209.356 679.909 209.722 669.959 208.123 657.731C199.215 668.999 191.114 680.859 181.957 691.946C177.398 697.464 171.805 702.095 167.327 707.581C165.411 709.928 164.588 714.168 161.458 715.144C159.946 714.877 158.933 714.369 157.626 713.625C156.725 714.563 156.156 715.365 155.506 716.494C154.67 717.946 153.968 718.805 152.288 719.309C151.049 719.681 149.797 719.626 148.681 718.928C146.002 717.253 144.664 712.637 144.196 709.733C143.913 707.981 143.904 706.129 143.919 704.355C148.119 699.591 152.032 696.935 158.487 696.17C164.686 685.196 170.633 674.031 177.156 663.248C183.815 652.242 191.161 641.581 196.773 629.983C193.728 629.748 190.241 629.77 187.333 628.85C180.905 627.965 175.822 620.88 171.851 616.251L171.913 616.972C172.303 621.137 173.189 624.151 176.266 627.104L176.279 627.971C174.224 629.15 170.663 628.718 168.445 628.086C163.854 626.779 160.29 623.452 158.071 619.305C157.779 618.754 157.5 618.195 157.235 617.63L158.278 614.998C158.026 611.392 158.816 605.789 157.214 602.601C158.355 598.782 160.456 595.495 162.551 592.144C157.602 593.764 153.624 596.089 149.802 599.584C148.301 601.978 147.151 604.528 145.847 607.03C145.221 608.23 144.539 609.811 143.208 610.235C143.122 610.1 143.021 609.974 142.951 609.83C141.643 607.142 142.119 599.864 143.285 597.143C145.669 591.579 151.325 588.791 156.639 586.692C161.134 584.043 166.271 582.538 170.814 579.807C172.117 572.041 173.837 565.21 178.648 558.808C184.239 551.383 192.532 546.461 201.727 545.108C202.329 544.923 202.468 544.867 203.173 544.734C209.83 543.484 217.372 543.769 222.963 547.999C229.665 553.07 231.298 561.253 232.235 569.069C233.37 569.427 234.512 569.784 235.62 570.221C238.598 571.396 240.816 573.414 241.999 576.431C243.01 579.009 242.997 582.075 242.492 584.761C240.149 597.224 229.112 596.137 225.828 604.368C227.423 604.389 228.624 604.098 230.12 603.544C246.862 597.344 268.794 585.069 276.532 568.318C278.575 563.894 280.13 559.152 281.798 554.572C286.466 541.746 288.836 532.472 283.915 519.179C284.59 516.581 285.671 514.118 286.671 511.632ZM298.304 482.889L298.597 485.336C298.905 488.02 299.2 490.614 299.088 493.324C295.93 501.005 292.547 505.694 286.671 511.632C285.671 514.118 284.59 516.581 283.915 519.179C288.836 532.472 286.466 541.746 281.798 554.572C280.13 559.152 278.575 563.894 276.532 568.318C268.794 585.069 246.862 597.344 230.12 603.544C228.624 604.098 227.423 604.389 225.828 604.368C229.112 596.137 240.149 597.224 242.492 584.761C242.997 582.075 243.01 579.009 241.999 576.431C240.816 573.414 238.598 571.396 235.62 570.221C234.512 569.784 233.37 569.427 232.235 569.069C231.298 561.253 229.665 553.07 222.963 547.999C217.372 543.769 209.83 543.484 203.173 544.734C202.468 544.867 202.329 544.923 201.727 545.108C192.532 546.461 184.239 551.383 178.648 558.808C173.837 565.21 172.117 572.041 170.814 579.807C166.271 582.538 161.134 584.043 156.639 586.692C151.325 588.791 145.669 591.579 143.285 597.143C142.119 599.864 141.643 607.142 142.951 609.83C143.021 609.974 143.122 610.1 143.208 610.235C144.539 609.811 145.221 608.23 145.847 607.03C147.151 604.528 148.301 601.978 149.802 599.584C153.624 596.089 157.602 593.764 162.551 592.144C160.456 595.495 158.355 598.782 157.214 602.601C158.816 605.789 158.026 611.392 158.278 614.998L157.235 617.63C157.5 618.195 157.779 618.754 158.071 619.305C160.29 623.452 163.854 626.779 168.445 628.086C170.663 628.718 174.224 629.15 176.279 627.971L176.266 627.104C173.189 624.151 172.303 621.137 171.913 616.972L171.851 616.251C175.822 620.88 180.905 627.965 187.333 628.85C190.241 629.77 193.728 629.748 196.773 629.983C191.161 641.581 183.815 652.242 177.156 663.248C170.633 674.031 164.686 685.196 158.487 696.17C152.032 696.935 148.119 699.591 143.919 704.355C143.904 706.129 143.913 707.981 144.196 709.733C144.664 712.637 146.002 717.253 148.681 718.928C149.797 719.626 151.049 719.681 152.288 719.309C153.968 718.805 154.67 717.946 155.506 716.494C156.156 715.365 156.725 714.563 157.626 713.625C158.933 714.369 159.946 714.877 161.458 715.144C164.588 714.168 165.411 709.928 167.327 707.581C171.805 702.095 177.398 697.464 181.957 691.946C191.114 680.859 199.215 668.999 208.123 657.731C209.722 669.959 209.356 679.909 204.635 691.456C203.126 695.145 203.65 696.55 205.051 700.078C202.356 707.663 191.638 720.439 184.76 724.938C180.58 727.672 175.619 729.141 171.399 731.835C160.131 739.028 153.356 754.127 143.3 763.262C140.757 765.572 133.183 770.529 132.456 773.744C134.668 776.905 141.366 776.571 144.767 777.89C150.599 780.151 155.276 784.832 161.246 787.05C171.628 790.908 183.601 790.522 194.447 792.878C188.831 798.26 182.784 803.102 177.844 809.168C171.488 816.971 165.106 832.957 156.791 838.071C151.163 841.533 144.189 839.999 138.717 842.945C137.433 843.637 136.647 844.585 136.274 846.002C134.298 853.524 139.439 872.226 143.708 878.673C145.292 881.065 147.594 883.868 150.606 884.345C152.886 884.706 154.92 883.609 156.642 882.231C160.843 878.87 156.961 871.102 157.762 866.082C161.091 845.243 190.41 830.168 206.642 819.841C212.452 816.145 217.978 811.995 223.523 807.918C229.177 810.005 234.795 811.42 240.873 811.125C239.553 818.087 238.942 825.164 239.049 832.249C239.134 843.721 241.203 860.236 238.196 871.068C236.771 876.204 232.019 879.797 230.244 884.802C229.549 886.762 229.531 888.66 230.431 890.553C234.003 898.069 246.473 904.979 254.135 907.458C258.191 908.77 265.129 910.452 268.952 908.241C271.23 906.924 271.584 904.886 272.213 902.513C272.113 902.352 272.017 902.19 271.913 902.032C271.747 901.776 271.571 901.526 271.403 901.271C268.443 896.797 263.42 894.178 260.658 889.475C257.805 884.615 258.104 878.152 255.502 872.858L255.174 872.203C256.014 864.656 258.464 856.846 260.365 849.499C262.776 840.251 265.038 830.965 267.149 821.644C279.343 768.831 275.136 732.199 260.853 680.281L266.809 677.336C262.057 667.26 260.936 655.654 258.97 644.78C257.612 636.895 255.703 629.114 253.259 621.496C254.094 620.903 254.923 620.302 255.746 619.693C288.818 595.201 294.635 583.414 300.775 542.945C301.283 540.066 301.919 537.382 302.843 534.607L308.707 531.521C309.988 533.088 311.637 534.949 313.288 536.144C315.342 537.629 317.025 537.543 319.393 537.103L322.934 534.586C320.727 531.198 312.02 514.948 311.435 514.412C311.919 512.892 312.206 511.431 312.453 509.857C310.357 505.08 308.499 500.672 305.066 496.658C306.982 495.153 308.776 494.273 310.998 493.334C312.862 493.493 314.791 493.73 316.661 493.693C318.911 493.647 320.029 492.825 321.54 491.234C323.965 484.817 325.444 478.162 324.961 471.267C324.687 467.357 323.77 462.974 320.569 460.372C316.922 457.409 312.759 458.167 308.486 458.738C304.243 459.63 301.703 458.459 297.722 456.961C294.884 457.014 290.716 457.103 288.358 458.881C287.94 459.196 287.842 459.446 287.61 459.858C287.741 462.588 292.467 465.989 294.08 468.286C296.781 472.132 296.733 478.465 298.304 482.889Z"/>
	<path fill="#E16958" d="M308.486 458.738C304.584 444.737 300.182 430.853 297.163 416.624C286.421 365.994 289.669 315.098 315.45 269.408C332.751 238.746 359.897 212.199 394.491 202.65C419.4 195.983 445.94 199.55 468.206 212.556C504.556 233.503 528.636 266.677 539.364 306.97C540.345 310.653 541.908 322.048 545.092 323.874C546.899 324.911 549.587 324.404 551.482 323.975C557.303 322.658 562.857 319.878 568.62 318.222C583.267 314.05 598.061 310.413 612.972 307.32C634.582 302.794 656.487 299.23 678.597 298.579C716.538 297.462 786.242 306.501 802.944 345.772C812.44 368.098 808.157 396.911 799.211 418.705C785.215 452.801 752.884 489.924 724.462 513.015C711.646 523.427 697.532 532.271 683.701 541.251C635.306 572.672 583.919 597.798 532.359 623.489C516.217 631.533 499.893 639.364 483.956 647.8C453.522 663.925 423.86 681.467 395.069 700.368C384.736 707.138 374.859 714.579 364.566 721.394C366.37 700.834 365.363 680.147 364.439 659.569C363.432 637.145 362.42 614.568 357.97 592.512C352.374 564.772 340.967 539.982 330.153 514.056C327.015 506.535 324.629 498.742 321.54 491.234C323.965 484.817 325.444 478.162 324.961 471.267C324.687 467.357 323.77 462.974 320.569 460.372C316.922 457.409 312.759 458.167 308.486 458.738Z"/>
	<path fill="#F8F3EA" d="M445.985 397.71C456.309 396.498 470.539 397.692 479.957 402.504C485.5 405.336 489.821 409.954 491.649 415.969C494.274 424.606 491.283 434.278 487.065 441.905C477.402 459.377 458.386 467.113 440.17 472.437C452.325 491.603 464.651 518.585 481.294 533.494C485.319 537.099 489.65 539.732 494.379 542.313C492.522 546.501 490.246 550.51 485.841 552.403C481.532 554.256 476.284 553.704 472.072 551.869C450.505 542.474 439.819 495.263 432.004 474.381C428.205 474.561 424.417 475.169 420.649 475.676C419.255 479.54 418.307 483.66 417.193 487.618C414.231 498.372 409.023 520.971 412.146 531.005C413.738 536.122 417.849 540.99 418.438 546.281C418.074 547.36 417.975 547.958 416.84 548.49C413.092 550.247 405.309 547.583 401.702 545.853C395.892 543.067 391.753 539.781 389.62 533.473C386.167 523.262 388.498 511.503 390.521 501.23C396.964 468.506 409.217 438.589 424.25 408.958C416.526 410.804 408.603 413.834 402.201 418.615C396.771 422.67 392.366 428.381 391.463 435.268C391.058 438.356 391.327 441.57 390.709 444.634C390.437 445.983 390.136 446.649 389.034 447.444C387.986 447.256 387.362 446.903 386.562 446.229C382.763 443.026 379.616 438.018 379.325 433.004C379.008 427.519 381.823 422.549 385.389 418.593C399.858 402.54 425.544 398.797 445.985 397.71Z"/>
	<path fill="#E16958" d="M444.116 405.203C450.136 404.812 456.408 404.59 462.246 406.376C466.793 407.768 470.921 410.409 473.049 414.794C475.817 420.499 474.7 427.194 472.631 432.933C467.645 446.759 456.651 456.586 443.628 462.741C436.809 465.433 430.136 467.004 422.972 468.41C425.532 459.603 442.374 416.717 440.606 410.688C439.984 408.563 437.133 407.154 435.37 406.065C438.268 405.68 441.204 405.472 444.116 405.203Z"/>
	<path fill="#F8F3EA" d="M609.38 446.417C610.753 446.44 612.194 446.666 613.522 447.012C618.294 448.252 620.658 451.644 622.987 455.653C617.625 472.782 604.713 497.506 605.947 515.312C606.149 518.223 606.897 521.563 609.3 523.478C610.569 524.489 612.137 525.017 613.766 524.739C620.624 523.565 628.622 509.55 631.61 503.855C633.518 500.216 635.132 495.599 637.661 492.406C638.335 491.556 638.392 491.457 639.496 491.31L640.16 492.102C640.965 495.631 639.397 500.079 637.888 503.316C633.049 513.695 627.144 528.178 615.26 532.228C611.58 533.483 607.664 533.328 604.163 531.591C597.155 528.115 594.373 521.102 592.091 514.143C588.781 519.747 585.645 525.711 581.408 530.681C577.573 535.18 572.042 539.346 565.967 539.697C561.234 539.97 556.794 537.922 553.369 534.746C547.255 529.075 545.668 521.654 545.289 513.706C540.819 521.831 536.222 531.317 528.011 536.276C523.75 538.85 518.906 539.855 514.037 538.6C508.396 537.147 504.097 533.044 501.308 528.055C492.235 511.827 498.248 490.273 502.81 473.576C505.243 466.651 508.851 453.247 515.607 449.263C517.207 448.319 519.08 447.947 520.884 448.502C525.018 449.773 528.062 454.91 529.853 458.569C524.279 473.792 509.671 511.634 515.922 526.273C516.654 527.987 517.737 529.705 519.604 530.288C521.627 530.919 523.963 528.871 525.339 527.629C542.143 512.458 552.281 452.519 561.772 447.846C563.198 447.144 564.651 447.015 566.151 447.583C570.502 449.233 573.64 453.485 575.429 457.6C574.244 464.68 570.895 471.237 568.343 477.898C564.886 486.922 562.012 496.627 560.508 506.169C559.584 512.034 557.884 523.264 561.817 528.279C562.979 529.743 564.717 530.632 566.583 530.719C570.143 530.872 573.648 528.067 576.14 525.815C582.037 520.487 589.137 511.803 590.575 503.74C591.131 500.627 590.766 497.218 590.953 494.052C591.838 479.084 597.822 456.821 609.38 446.417Z"/>
	<path fill="#F8F3EA" d="M351.132 294.876C352.672 295.002 353.822 295.307 355.094 296.232C358.894 298.994 359.409 304.887 359.982 309.17C361.298 307.089 362.615 305.047 364.255 303.201C366.922 300.198 370.735 297.171 374.947 297.088C376.984 297.038 378.957 297.803 380.427 299.215C382.691 301.396 383.573 304.684 383.49 307.751C383.261 316.255 376.787 322.591 370.918 327.897C364.208 333.122 357.27 337.982 350.297 342.844C343.268 334.064 340.252 322.973 341.496 311.788C342.326 304.329 345.381 299.452 351.132 294.876Z"/>
	<path fill="#F8F3EA" d="M747.079 341.357C747.263 341.385 747.449 341.403 747.631 341.442C751.069 342.185 752.712 344.113 754.502 346.98L754.595 357.406C755.563 356.091 756.533 354.765 757.59 353.519C760.715 349.839 765.13 346.245 770.163 345.985C772.734 345.852 775.257 346.675 777.088 348.527C779.229 350.691 780.061 353.829 779.912 356.807C779.537 364.289 774.347 369.736 769.191 374.519C760.92 380.703 751.981 384.89 742.608 389.073C739.929 378.533 736.991 367.383 738.404 356.433C739.258 349.818 741.843 345.334 747.079 341.357Z"/>
	<path fill="#F8F3EA" d="M624.979 413.069C627.083 413.12 629.063 413.452 630.958 414.4C633.852 415.849 635.883 418.126 636.878 421.217C638.019 424.858 637.668 428.803 635.901 432.185C633.578 436.629 630.21 438.398 625.685 439.912C623.581 440.029 621.28 439.723 619.379 438.779C616.407 437.302 614.356 434.72 613.458 431.538C612.375 427.637 612.893 423.465 614.898 419.948C617.315 415.797 620.458 414.19 624.979 413.069Z"/>
	<path fill="#A85248" d="M286.671 511.632C286.644 511.475 286.621 511.318 286.591 511.161C284.505 500.087 270.166 483.193 263.556 473.311C259.867 467.697 256.337 461.98 252.97 456.167C244.468 441.513 236.697 426.448 229.683 411.026C203.327 354.081 190.904 297.126 207.631 235.431C213.322 214.442 221.573 194.614 233.651 176.47C261.612 134.468 305.658 109.35 354.489 99.6812C406.458 89.3906 469.921 92.9947 514.973 123.505C544.71 143.645 566.607 174.038 573.204 209.671C578.171 236.498 573.286 261.316 567.458 287.448C586.049 273.696 604.54 260.701 625.185 250.13C683.654 220.19 760.817 206.713 825.879 216.513C869.877 223.14 914.714 241.88 941.767 278.708C963.777 308.671 969.983 347.711 964.43 383.943C955.147 444.513 913.704 492.733 865.612 527.8C818.318 562.285 763.64 587.636 709.851 610.204C647.828 636.227 584.39 658.705 522.196 684.315C480.339 701.688 439.582 721.597 400.149 743.932C368.836 761.261 342.742 773.485 319.26 801.724C324.568 786.308 333.858 772.893 338.076 757.002C354.311 695.834 335.438 613.536 308.307 557.897C305.879 552.918 303.581 547.709 300.775 542.945C301.283 540.066 301.919 537.382 302.843 534.607L308.707 531.521C309.988 533.088 311.637 534.949 313.288 536.144C315.342 537.629 317.025 537.543 319.393 537.103C330.115 559.413 338.898 582.604 345.647 606.419C360.17 656.57 367.005 708.996 353.409 760.172C362.054 751.731 372.82 744.876 382.864 738.226C401.833 725.576 421.336 713.745 441.319 702.765C482.228 679.772 524.096 658.531 566.812 639.101C649.71 601.489 735.002 568.773 811.087 517.933C833.252 503.122 854.901 487.003 873.298 467.6C901.868 437.466 920.946 401.325 919.662 358.734C918.733 327.883 907.367 300.157 884.708 278.97C851.877 248.27 801.519 236.304 757.539 237.682C702.751 239.399 648.598 255.767 600.448 281.581C582.652 291.122 566.179 301.132 552.213 316.002C557.441 289.941 557.477 255.359 552.331 229.216C545.987 196.99 528.872 168.309 501.214 150.025C462.587 124.49 411.289 119.961 366.775 129.179C324.837 137.864 289.291 160.639 265.711 196.735C235.122 243.562 226.221 301.989 237.607 356.325C244.563 388.209 255.954 418.962 271.446 447.685C276.254 456.55 281.992 464.869 286.965 473.633C289.677 478.413 294.896 490.588 299.088 493.324C295.93 501.005 292.547 505.694 286.671 511.632Z"/>
	<path d="M297.722 456.961C301.703 458.459 304.243 459.63 308.486 458.738C312.759 458.167 316.922 457.409 320.569 460.372C323.77 462.974 324.687 467.357 324.961 471.267C325.444 478.162 323.965 484.817 321.54 491.234C320.029 492.825 318.911 493.647 316.661 493.693C314.791 493.73 312.862 493.493 310.998 493.334C308.776 494.273 306.982 495.153 305.066 496.658C308.499 500.672 310.357 505.08 312.453 509.857C312.206 511.431 311.919 512.892 311.435 514.412C312.02 514.948 320.727 531.198 322.934 534.586L319.393 537.103C317.025 537.543 315.342 537.629 313.288 536.144C311.637 534.949 309.988 533.088 308.707 531.521L302.843 534.607C301.919 537.382 301.283 540.066 300.775 542.945C294.635 583.414 288.818 595.201 255.746 619.693C254.923 620.302 254.094 620.903 253.259 621.496C255.703 629.114 257.612 636.895 258.97 644.78C260.936 655.654 262.057 667.26 266.809 677.336L260.853 680.281C275.136 732.199 279.343 768.831 267.149 821.644C265.038 830.965 262.776 840.251 260.365 849.499C258.464 856.846 256.014 864.656 255.174 872.203L255.502 872.858C258.104 878.152 257.805 884.615 260.658 889.475C263.42 894.178 268.443 896.797 271.403 901.271C271.571 901.526 271.747 901.776 271.913 902.032C272.017 902.19 272.113 902.352 272.213 902.513C271.584 904.886 271.23 906.924 268.952 908.241C265.129 910.452 258.191 908.77 254.135 907.458C246.473 904.979 234.003 898.069 230.431 890.553C229.531 888.66 229.549 886.762 230.244 884.802C232.019 879.797 236.771 876.204 238.196 871.068C241.203 860.236 239.134 843.721 239.049 832.249C238.942 825.164 239.553 818.087 240.873 811.125C234.795 811.42 229.177 810.005 223.523 807.918C217.978 811.995 212.452 816.145 206.642 819.841C190.41 830.168 161.091 845.243 157.762 866.082C156.961 871.102 160.843 878.87 156.642 882.231C154.92 883.609 152.886 884.706 150.606 884.345C147.594 883.868 145.292 881.065 143.708 878.673C139.439 872.226 134.298 853.524 136.274 846.002C136.647 844.585 137.433 843.637 138.717 842.945C144.189 839.999 151.163 841.533 156.791 838.071C165.106 832.957 171.488 816.971 177.844 809.168C182.784 803.102 188.831 798.26 194.447 792.878C183.601 790.522 171.628 790.908 161.246 787.05C155.276 784.832 150.599 780.151 144.767 777.89C141.366 776.571 134.668 776.905 132.456 773.744C133.183 770.529 140.757 765.572 143.3 763.262C153.356 754.127 160.131 739.028 171.399 731.835C175.619 729.141 180.58 727.672 184.76 724.938C191.638 720.439 202.356 707.663 205.051 700.078C203.65 696.55 203.126 695.145 204.635 691.456C209.356 679.909 209.722 669.959 208.123 657.731C199.215 668.999 191.114 680.859 181.957 691.946C177.398 697.464 171.805 702.095 167.327 707.581C165.411 709.928 164.588 714.168 161.458 715.144C159.946 714.877 158.933 714.369 157.626 713.625C156.725 714.563 156.156 715.365 155.506 716.494C154.67 717.946 153.968 718.805 152.288 719.309C151.049 719.681 149.797 719.626 148.681 718.928C146.002 717.253 144.664 712.637 144.196 709.733C143.913 707.981 143.904 706.129 143.919 704.355C148.119 699.591 152.032 696.935 158.487 696.17C164.686 685.196 170.633 674.031 177.156 663.248C183.815 652.242 191.161 641.581 196.773 629.983C193.728 629.748 190.241 629.77 187.333 628.85C180.905 627.965 175.822 620.88 171.851 616.251L171.913 616.972C172.303 621.137 173.189 624.151 176.266 627.104L176.279 627.971C174.224 629.15 170.663 628.718 168.445 628.086C163.854 626.779 160.29 623.452 158.071 619.305C157.779 618.754 157.5 618.195 157.235 617.63L158.278 614.998C158.026 611.392 158.816 605.789 157.214 602.601C158.355 598.782 160.456 595.495 162.551 592.144C157.602 593.764 153.624 596.089 149.802 599.584C148.301 601.978 147.151 604.528 145.847 607.03C145.221 608.23 144.539 609.811 143.208 610.235C143.122 610.1 143.021 609.974 142.951 609.83C141.643 607.142 142.119 599.864 143.285 597.143C145.669 591.579 151.325 588.791 156.639 586.692C161.134 584.043 166.271 582.538 170.814 579.807C172.117 572.041 173.837 565.21 178.648 558.808C184.239 551.383 192.532 546.461 201.727 545.108C202.329 544.923 202.468 544.867 203.173 544.734C209.83 543.484 217.372 543.769 222.963 547.999C229.665 553.07 231.298 561.253 232.235 569.069C233.37 569.427 234.512 569.784 235.62 570.221C238.598 571.396 240.816 573.414 241.999 576.431C243.01 579.009 242.997 582.075 242.492 584.761C240.149 597.224 229.112 596.137 225.828 604.368C227.423 604.389 228.624 604.098 230.12 603.544C246.862 597.344 268.794 585.069 276.532 568.318C278.575 563.894 280.13 559.152 281.798 554.572C286.466 541.746 288.836 532.472 283.915 519.179C284.59 516.581 285.671 514.118 286.671 511.632C292.547 505.694 295.93 501.005 299.088 493.324C299.2 490.614 298.905 488.02 298.597 485.336L298.304 482.889C296.733 478.465 296.781 472.132 294.08 468.286C292.467 465.989 287.741 462.588 287.61 459.858C287.842 459.446 287.94 459.196 288.358 458.881C290.716 457.103 294.884 457.014 297.722 456.961ZM219.056 606.95C219.775 606.754 220.498 606.56 221.208 606.333C222.782 605.829 223.52 605.381 224.297 603.921C223.97 602.7 223.719 601.709 223.711 600.433C225.285 597.132 228.994 597.67 231.82 595.646C235.705 592.863 239.197 589.148 239.896 584.228C240.479 580.126 239.023 577.005 236.683 573.75C234.617 573.401 231.799 573.206 230.085 571.921C228.427 570.676 228.642 565.382 228.46 563.421C228.329 562.015 228.288 560.688 227.162 559.763C225.994 560.416 225.683 561.752 225.204 562.928L223.695 567.337C222.961 574.267 226.164 573.33 226.223 577.382C224.89 579.036 224.963 577.701 223.344 578.393C222.917 579.665 222.556 581.444 221.534 582.355C221.009 582.822 220.91 582.653 220.118 582.668C220.57 581.892 220.907 581.416 221.042 580.516C220.629 579.325 220.208 578.815 219.223 578.028C218.17 577.186 216.849 575.72 215.512 575.457C214.853 575.327 214.336 575.826 213.871 576.232C212.803 577.164 212.486 578.223 212.424 579.601C213.961 584.164 220.339 586.35 224.379 588.363L224.127 588.865L224.845 588.697L224.723 589.14C223.406 589.523 223.359 589.414 222.044 588.971C220.129 588.327 219.192 587.991 217.348 588.903C214.716 593.416 217.872 602.117 219.056 606.95ZM152.31 852.023L153.392 854.215C153.492 854.045 153.59 853.874 153.693 853.707L154.179 852.93C157.205 848.043 161.814 848.31 166.202 845.268C171.928 841.299 176.703 835.933 182.449 831.875C195.268 822.823 208.836 814.895 221.641 805.734C216.73 800.199 210.255 795.459 204.176 791.291C188.57 800.06 181.075 809.912 171.501 824.537C167.77 830.237 163.847 836.136 158.203 840.137C155.916 841.758 153.297 842.451 150.773 843.601C149.772 846.122 151.476 849.568 152.31 852.023ZM251.163 885.712C251.858 880.822 251.585 875.871 252.466 870.965C256.056 850.98 262.159 831.232 266.372 811.316C258.167 812.682 250.911 813.994 242.589 812.638C242.958 814.845 242.431 817.508 242.303 819.754C241.75 829.404 242.001 839.194 242.196 848.858C242.283 853.204 242.737 857.821 242.358 862.128C241.978 866.439 238.59 873.38 239.717 877.442C240.631 880.735 248.162 884.227 251.163 885.712Z"/>
	<path fill="#431A16" d="M170.814 579.807C172.117 572.041 173.837 565.21 178.648 558.808C184.239 551.383 192.532 546.461 201.727 545.108C202.011 545.193 202.293 545.283 202.577 545.363C209.699 547.375 219.452 544.239 223.984 552.341C225.895 555.757 223.664 559.883 225.204 562.928L223.695 567.337L223.505 566.258C222.317 567.191 221.788 570.448 221.603 572.002C221.554 572.416 221.52 572.832 221.477 573.248L221.396 573.962L221.352 574.392C218.702 573.653 214.544 572.216 211.963 573.688C210.854 574.32 210.384 575.362 210.226 576.574C209.689 580.716 212.736 585.142 213.592 589.108C214.973 595.504 215.218 601.788 216.994 608.19C208.564 613.534 203.681 621.121 196.754 627.987C194.129 627.964 189.563 627.343 187.333 628.85C180.905 627.965 175.822 620.88 171.851 616.251L171.913 616.972C172.303 621.137 173.189 624.151 176.266 627.104L176.279 627.971C174.224 629.15 170.663 628.718 168.445 628.086C163.854 626.779 160.29 623.452 158.071 619.305C157.779 618.754 157.5 618.195 157.235 617.63L158.278 614.998C158.026 611.392 158.816 605.789 157.214 602.601C158.355 598.782 160.456 595.495 162.551 592.144C157.602 593.764 153.624 596.089 149.802 599.584C148.301 601.978 147.151 604.528 145.847 607.03C145.221 608.23 144.539 609.811 143.208 610.235C143.122 610.1 143.021 609.974 142.951 609.83C141.643 607.142 142.119 599.864 143.285 597.143C145.669 591.579 151.325 588.791 156.639 586.692C161.134 584.043 166.271 582.538 170.814 579.807Z"/>
	<path d="M156.639 586.692C155.752 589.44 148.833 593.037 146.355 597.039C145.043 599.157 144.355 601.834 143.624 604.2C145.292 602.455 147.22 599.738 149.802 599.584C148.301 601.978 147.151 604.528 145.847 607.03C145.221 608.23 144.539 609.811 143.208 610.235C143.122 610.1 143.021 609.974 142.951 609.83C141.643 607.142 142.119 599.864 143.285 597.143C145.669 591.579 151.325 588.791 156.639 586.692Z"/>
	<path d="M158.278 614.998C159.617 619.463 162.587 623.629 166.776 625.899C167.789 626.448 168.495 626.566 169.615 626.369C170.857 625.143 171.103 624.323 171.099 622.568C171.094 619.782 170.559 616.45 171.348 613.797L171.79 613.995L171.851 616.251L171.913 616.972C172.303 621.137 173.189 624.151 176.266 627.104L176.279 627.971C174.224 629.15 170.663 628.718 168.445 628.086C163.854 626.779 160.29 623.452 158.071 619.305C157.779 618.754 157.5 618.195 157.235 617.63L158.278 614.998Z"/>
	<path fill="#A85248" d="M297.344 465.964C303.524 467.423 308.129 467.826 313.837 464.409C315.712 463.287 317.387 461.908 319.068 460.52C322.577 469.008 324.631 477.55 321.055 486.482C320.373 488.184 319.549 489.838 318.753 491.489C313.893 490.786 310.223 491.073 305.695 493.195C304.698 489.388 303.746 485.412 301.594 482.069C299.634 476.703 297.744 471.721 297.344 465.964Z"/>
	<path fill="#F8F3EA" d="M305.066 496.658C308.499 500.672 310.357 505.08 312.453 509.857C312.206 511.431 311.919 512.892 311.435 514.412C308.945 512.547 307.984 510.982 306.907 508.057C306.856 507.929 306.819 507.794 306.752 507.674C305.637 505.678 302.692 505.18 300.667 504.58C301.929 501.705 303.215 499.211 305.066 496.658Z"/>
	<path fill="#431A16" d="M298.304 482.889C299.444 482.804 300.503 482.401 301.594 482.069C303.746 485.412 304.698 489.388 305.695 493.195C304.79 493.354 303.828 493.46 303.074 494.044C300.55 495.998 296.617 506.809 292.248 511.336C293.937 505.95 301.08 499.622 300.132 493.877L299.088 493.324C299.2 490.614 298.905 488.02 298.597 485.336L298.304 482.889Z"/>
	<path fill="#E16958" d="M300.667 504.58C302.692 505.18 305.637 505.678 306.752 507.674C306.819 507.794 306.856 507.929 306.907 508.057L306.345 508.663C304.252 509.246 302.008 510.135 299.823 509.893C299.927 508.081 300.303 506.355 300.667 504.58Z"/>
	<path fill="#A85248" d="M306.345 508.663C306.022 510.339 306.093 511.029 304.875 512.27C302.495 512.938 300.282 512.131 298.042 511.292C297.274 510.24 297.313 510.227 297.383 508.918L298.202 507.877C299.368 508.326 299.286 508.814 299.823 509.893C302.008 510.135 304.252 509.246 306.345 508.663Z"/>
	<path fill="#A85248" d="M248.891 689.964C249.06 690.639 249.21 691.313 249.314 692.002C250.177 697.739 248.999 704.297 248.564 710.079C246.907 732.131 245.94 756.467 237.22 777.063C233.381 786.128 227.246 793.849 221.361 801.646C205.652 788.405 199.249 785.019 178.407 785.38C173.754 785.461 168.668 786.306 164.111 785.284C158.335 783.99 153.075 780.034 147.763 777.501C143.84 775.63 139.757 774.514 135.57 773.395C141.016 768.537 146.496 763.67 151.295 758.157C157.266 751.298 162.562 743.738 169.093 737.392C173.712 732.904 179.88 730.709 185.422 727.635C195.583 721.997 202.146 709.845 208.526 700.488C213.335 700.919 218.059 700.958 222.879 700.921C215.478 710.422 209.105 720.658 201.625 730.085C188.633 746.837 170.22 758.764 152.492 769.807C171.221 764.089 196.429 740.546 208.182 724.555C213.818 716.888 218.247 708.251 224.539 701.081L224.999 700.566C229.861 699.059 234.673 697.343 239.497 695.718C235.184 704.651 231.148 713.431 228.454 723.02C225.361 734.027 223.701 745.408 220.561 756.395C218.626 763.164 215.62 769.431 213.243 776.028C224.808 759.682 225.125 741.245 230.098 722.61C232.678 712.942 236.884 703.99 241.001 694.909C243.639 693.274 246.269 691.625 248.891 689.964Z"/>
	<path fill="#518E5F" d="M161.975 696.163C166.888 687.374 171.236 678.272 176.194 669.512C181.546 660.058 187.555 650.968 193.161 641.662C198.481 632.832 203.095 621.873 211.263 615.276C218.471 609.454 227.692 607.185 236.058 603.567C251.785 596.766 271.582 586.25 279.39 570.301C282.131 564.703 283.464 558.319 285.777 552.512C289.234 553.321 292.724 554.068 296.128 555.083C288.105 596.917 275.36 598.644 245.953 624.699C247.702 623.91 249.159 623.281 251.074 623.058C254.64 627.604 257.805 655.648 259.163 662.924C259.952 667.271 261.01 671.564 262.332 675.779C256.755 680.65 251.122 685.391 244.8 689.286C232.775 696.695 219.795 700.073 205.895 696.722C206.887 693.575 207.861 690.423 208.819 687.266C213.949 669.762 210.975 651.067 202.329 635.194C203.462 641.692 205.256 648.081 206.88 654.47C195.293 671.286 182.041 687.423 168.585 702.764L161.975 696.163Z"/>
	<path fill="#A85248" d="M259.268 682.408C261.621 687.546 262.386 694.664 263.592 700.272C269.279 726.705 272.24 751.871 270.832 778.939C270.412 787.011 269.938 794.855 268.196 802.782C257.044 805.414 245.882 808.588 234.35 808.606C229.686 807.27 226.228 805.212 222.25 802.493C225.251 799.25 228.207 795.961 230.899 792.454C236.094 785.688 239.751 778.152 242.356 770.044C248.727 750.217 252.45 709.882 249.788 689.259C252.868 686.867 256.077 684.65 259.268 682.408Z"/>
	<path fill="#A85248" d="M254.163 875.804C254.247 875.87 254.335 875.93 254.413 876.002C256.997 878.419 257.157 887.31 259.585 891.593C261.579 895.111 268.991 901.12 269.093 904.686C268.112 905.908 267.372 906.54 265.766 906.746C258.063 907.731 249.189 903.223 243.269 898.784L237.282 894.207C235.017 892.476 232.523 890.35 232.264 887.298C231.936 883.437 234.967 880.453 237.331 877.811C241.759 881.951 247.147 885.258 251.762 889.291C253.762 884.726 253.966 880.714 254.163 875.804Z"/>
	<path fill="#A85248" d="M138.957 844.467C140.881 844.226 143.354 843.716 145.279 844.081C148.805 844.749 149.689 848.871 151.723 851.333C151.915 851.566 152.114 851.793 152.31 852.023L153.392 854.215L153.731 855.857L154.485 856.346C156.612 855.211 157.517 852.58 159.249 850.919C160.291 849.921 161.742 848.943 163.183 848.924C162.742 851.689 159.721 854.949 158.426 857.569C156.35 861.769 155.136 865.57 154.24 870.165C155.05 872.445 157.539 876.615 156.425 878.971C155.483 880.96 152.264 881.935 150.357 882.745C142.434 870.501 139.768 858.867 138.957 844.467Z"/>
	<path fill="#F8F3EA" d="M298.707 536.984C295.593 536.315 292.214 536.051 289.232 534.94C288.996 528.521 287.703 521.657 288.666 515.304C289.435 515.02 290.194 514.711 290.963 514.427C292.965 513.686 293.975 512.942 295.491 511.393C295.652 511.228 295.81 511.06 295.969 510.893C297.293 512.467 298.783 513.856 300.264 515.279L301.621 516.049C303.253 518.79 305.675 521.144 307.102 523.999C307.803 525.402 308.162 526.868 307.453 528.363C306.261 530.876 302.888 532.037 300.528 533.185L298.707 536.984Z"/>
	<path fill="#FED5B1" d="M156.033 698.702C158.811 698.344 160.186 698.577 162.387 700.344C163.811 701.486 165.141 702.773 166.477 704.016C165.016 706.381 163.503 709.566 161.41 711.367C159.211 710.941 159.304 707.992 157.282 707.333C154.342 709.828 155.999 715.757 151.453 717.17L150.108 716.738C149.553 715.655 149.478 715.05 149.835 713.851C150.525 711.536 152.037 709.204 153.231 707.096C151.55 708.732 149.893 710.383 148.093 711.889L147.372 711.847C147.339 710.706 147.843 709.904 148.608 709.097C150.582 707.017 153.376 706.081 155.409 704.122L156.033 698.702Z"/>
	<path fill="#F8F3EA" d="M290.786 537.761C293.08 538.503 295.442 539.168 297.661 540.111C297.396 545.143 296.778 550.091 296.128 555.083C292.724 554.068 289.234 553.321 285.777 552.512C287.415 547.62 288.884 542.55 290.786 537.761Z"/>
	<path fill="#E3A693" d="M242.589 812.638C245.505 808.362 262.009 806.211 267.605 805.048L266.372 811.316C258.167 812.682 250.911 813.994 242.589 812.638Z"/>
	<path fill="#A85248" d="M296.624 458.628L297.268 458.742C297.597 458.802 297.925 458.868 298.254 458.926C300.472 459.318 302.125 459.932 304.156 460.927C308.971 460.322 313.82 460.016 318.674 460.012L311.657 463.148L311.015 463.391C305.661 465.374 299.748 465.257 294.566 462.599C293.468 462.036 292.985 461.675 292.585 460.477C293.762 459.172 294.957 459.11 296.624 458.628Z"/>
	<path fill="#792219" d="M311.99 519.016C312.812 522.782 314.666 526.147 316.468 529.518C317.635 530.992 318.566 532.117 319.044 533.957L318.639 534.885C317.339 535.217 316.222 534.871 315.065 534.241C313.44 533.356 312.227 531.919 311.084 530.502C309.426 527.806 309.982 524.041 308.288 521.04C309.618 520.482 310.942 520.045 311.99 519.016Z"/>
	<path fill="#A85248" d="M311.084 530.502C311.239 530.354 311.38 530.187 311.551 530.057C312.839 529.083 314.952 529.447 316.468 529.518C317.635 530.992 318.566 532.117 319.044 533.957L318.639 534.885C317.339 535.217 316.222 534.871 315.065 534.241C313.44 533.356 312.227 531.919 311.084 530.502Z"/>
	<path fill="#A85248" d="M300.264 515.279C302.92 514.328 305.918 513.815 308.547 515.138C310.285 516.013 311.158 517.294 311.99 519.016C310.942 520.045 309.618 520.482 308.288 521.04C306.319 518.778 304.755 516.551 301.621 516.049L300.264 515.279Z"/>
	<path fill="#E3A693" d="M146.225 705.742C149.243 702.67 152.257 700.662 156.033 698.702L155.409 704.122C155.287 704.053 155.174 703.966 155.043 703.916C152.835 703.073 148.422 705.032 146.225 705.742Z"/>
	<path fill="#FAC26B" d="M298.597 485.336C293.296 478.885 290.089 469.571 286.158 462.124C280.107 450.664 273.724 439.361 268.255 427.602C255.453 400.079 245.567 369.755 241.542 339.612C234.625 287.815 246.332 232.709 278.412 190.826C304.497 156.77 340.895 138.915 382.743 133.409C424.097 127.969 469.83 134.189 503.595 160.356C530.391 181.122 543.091 210.346 547.163 243.395C547.632 247.201 550.405 271.501 548.882 273.451C548.601 273.129 546.471 260.017 545.554 257.147C541.122 243.673 534.964 230.828 527.234 218.934C509.076 190.705 479.653 166.436 446.414 159.356C408.145 151.205 362.934 162.654 330.473 183.89C297.401 205.526 279.902 235.152 272.011 273.311C261.358 324.827 268.567 377.006 285.258 426.375C288.613 436.301 291.491 447.658 297.365 456.441C297.482 456.615 297.603 456.788 297.722 456.961C294.884 457.014 290.716 457.103 288.358 458.881C287.94 459.196 287.842 459.446 287.61 459.858C287.741 462.588 292.467 465.989 294.08 468.286C296.781 472.132 296.733 478.465 298.304 482.889L298.597 485.336Z"/>
	<path fill="#FAC26B" d="M312.98 509.827C314.571 509.506 315.483 509.558 316.897 510.426C320.146 512.421 322.184 515.95 325.425 517.981C327.175 521.439 328.8 524.897 330.287 528.477C343.117 556.072 350.022 575.967 355.056 606.253C355.961 611.674 356.678 617.124 357.204 622.595C357.493 625.689 356.946 631.349 357.929 634.033L357.511 633.818L357.527 634.461C357.494 634.315 357.309 633.335 357.217 633.246C351.36 606.326 344.039 579.661 333.63 554.109C330.903 547.415 327.971 539.958 323.929 533.983L322.934 534.586C320.727 531.198 312.02 514.948 311.435 514.412C311.919 512.892 312.206 511.431 312.453 509.857L312.98 509.827Z"/>
	<path fill="#FED5B1" d="M312.453 509.857L312.98 509.827L313.679 511.13C314.535 517.848 321.849 523.64 326.386 528.229C325.539 530.138 324.69 532.039 323.929 533.983L322.934 534.586C320.727 531.198 312.02 514.948 311.435 514.412C311.919 512.892 312.206 511.431 312.453 509.857Z"/>
	<path fill="#A85248" d="M312.98 509.827C314.571 509.506 315.483 509.558 316.897 510.426C320.146 512.421 322.184 515.95 325.425 517.981C327.175 521.439 328.8 524.897 330.287 528.477C326.895 527.866 316.669 514.565 313.679 511.13L312.98 509.827Z"/>
	<path fill="#FAC26B" d="M305.066 496.658C306.982 495.153 308.776 494.273 310.998 493.334C316.991 501.068 322.184 508.647 325.425 517.981C322.184 515.95 320.146 512.421 316.897 510.426C315.483 509.558 314.571 509.506 312.98 509.827L312.453 509.857C310.357 505.08 308.499 500.672 305.066 496.658Z"/>
	<path fill="#FAC26B" d="M760.107 245.223L761.998 245.175C804.126 244.314 851.858 256.086 882.797 286.064C902.763 305.409 912.283 332.237 912.633 359.709C913.015 389.728 903.741 417.657 886.422 442.069C868.832 466.863 844.803 485.915 820.268 503.425C798.776 518.763 774.323 534.637 751.276 547.386C691.624 580.384 627.644 605.152 565.531 633.034C516.357 654.928 468.482 679.628 422.141 707.013C408.583 714.884 395.278 723.184 382.247 731.9C375.207 736.611 367.87 741.092 361.919 747.176C363.073 741.508 363.464 735.786 363.614 730.013C368.482 725.447 374.411 721.627 379.846 717.765C398.856 704.257 418.799 692.371 438.873 680.536C451.44 673.884 463.601 666.486 476.151 659.804C498.998 647.841 522.042 636.256 545.272 625.053C557.229 619.179 568.969 612.912 581.035 607.253C620.406 588.789 660.494 571.796 699.294 552.141C717.448 542.944 736.03 533.481 752.694 521.732C765.48 512.718 777.159 501.986 788.988 491.767C813.249 470.808 836.145 451.249 850.262 421.678C855.014 411.722 858.65 401.457 860.497 390.561C864.695 365.809 860.729 340.205 845.988 319.516C803.681 260.135 699.654 265.84 637.204 281.601C627.372 284.052 617.628 286.842 607.99 289.966C604.285 291.174 594.197 296.002 591.044 295.481L591.116 294.968L590.495 295.38L590.496 295.858L590.15 295.752C602.248 290.472 613.899 282.385 626.109 276.684C668.161 257.164 713.762 246.457 760.107 245.223Z"/>
	<path fill="#FE7A26" d="M716.09 277.71C721.75 277.186 727.758 277.779 733.427 278.07C759.337 279.4 785.234 284.12 808.338 296.466C828.871 307.438 845.444 324.365 852.219 347.01C860.434 374.469 852.91 403.174 839.608 427.681C834.747 436.636 829.214 445.059 822.494 452.742C812.91 463.698 801.538 472.922 790.432 482.266C773.304 496.676 755.934 511.015 737.051 523.093C723.628 531.678 709.546 539.03 695.443 546.417C685.101 551.835 674.33 558.275 663.094 561.61C668.85 557.533 675.524 554.475 681.59 550.832C698.67 540.575 714.924 530.24 729.887 516.999C753.831 496.87 774.62 473.263 791.56 446.967C808.667 420.214 819.484 386.676 812.342 354.839C808.516 337.784 798.288 324.364 783.585 315.112C770.429 306.832 755.243 301.908 740.177 298.408C684.28 285.421 634.774 295.611 580.003 308.066C590.581 303.016 601.752 299.261 612.925 295.773C646.945 285.155 680.58 279.903 716.09 277.71Z"/>
	<path fill="#FE7A26" d="M414.318 163.712C416.217 163.501 418.132 163.565 420.039 163.616C455.602 164.564 482.585 178.459 506.772 204.019C531.923 230.759 545.622 266.274 544.944 302.977C536.574 276.453 526.006 253.078 505.792 233.176C482.097 209.846 451.658 192.132 417.56 192.516C382.969 192.905 354.593 212.197 331.297 236.044C326.274 241.555 321.596 247.371 317.292 253.46C292.837 288.237 282.266 332.087 284.034 374.276C284.426 383.633 285.757 392.789 287.058 402.046C287.599 405.894 287.765 409.863 288.462 413.671L288.647 414.651C286.525 410.344 286.201 405.432 285.07 400.812C283.913 396.083 282.315 391.491 281.231 386.731C278.584 375.105 277.249 363.332 276.175 351.471C272.022 305.598 275.469 250.293 306.438 213.473C333.293 181.545 373.869 167.184 414.318 163.712Z"/>
	<path fill="#A85248" d="M806.798 41.724C814.761 40.5806 824.912 42.7973 832.543 45.0293C849.674 50.0401 864.539 60.0099 873.154 75.9575C880.773 90.0612 881.621 106.922 877.022 122.122C885.859 117.892 895.569 115.801 905.365 116.019C916 116.335 926.956 119.539 934.382 127.541C938.863 132.37 941.924 139.362 941.436 146.028C941.307 147.795 940.542 149.311 939.122 150.393C934.685 153.777 918.63 148.777 912.909 148.242C907.707 147.755 902.697 147.897 897.51 148.504C880.428 150.502 863.398 159.183 846.23 158.611C830.913 158.101 817.419 150.031 801.879 150.846C795.234 151.195 788.792 153.209 782.367 154.797C771.023 157.599 759.519 158.749 747.882 157.391C736.734 156.472 725.913 152.698 715.448 148.951C705.695 145.459 696.005 141.357 686.03 138.563C660.237 131.339 637.167 138.191 612.988 146.978C615.739 136.929 619.324 127.583 625.825 119.337C635.944 106.5 651.484 96.5762 667.901 94.7263C679.849 93.3801 688.027 96.9402 697.196 104.319C701.527 97.609 706.149 91.2688 711.55 85.3589C736.214 58.6993 770.502 42.9915 806.798 41.724Z"/>
	<path fill="#A85248" d="M225.783 911.201C227.853 911.05 229.927 910.941 232.002 910.874C248.674 910.459 276.395 913.798 291.871 920.01C298.44 922.647 304.762 926.469 309.856 931.412C319.739 941.001 323.844 953.799 324.019 967.324C326.561 965.882 329.005 964.572 331.812 963.697C339.66 961.25 348.612 962.166 355.871 965.978C360.723 968.525 366.395 973.17 367.885 978.601C368.397 980.467 368.325 982.488 367.246 984.146C365.874 986.254 363.431 987.41 361.064 988.003C341.177 992.98 308.952 982.748 287.512 982.125C272.713 981.695 258.56 985.343 243.906 986.437C232.992 987.252 222.16 986.213 211.25 986.567C202.401 986.853 193.713 988.573 185.028 990.163C150.618 997.587 129.29 990.311 96.2623 986.9C80.7387 985.296 63.9921 985.458 48.5409 987.571C50.0666 981.852 52.2716 976.048 55.7414 971.21C60.2577 964.912 66.9359 960.582 74.6678 959.495C82.7529 958.359 89.0831 960.61 95.5263 965.333C96.0374 964.58 96.5901 963.856 97.1817 963.165C104.128 954.918 113.413 949.832 124.219 949.02C134.269 948.264 142.092 951.205 149.665 957.777C152.556 952.729 155.874 947.938 159.582 943.456C176.705 922.696 199.632 913.811 225.783 911.201Z"/>
	<path fill="#A85248" d="M853.355 702.221C862.611 701.898 871.772 702.908 880.641 705.644C893.403 709.582 905.369 717.387 911.662 729.49C917.001 739.758 915.726 749.098 912.32 759.672C924.771 758.531 936.813 759.432 947.606 766.396C951.506 768.912 956.405 773.321 957.278 778.09C957.583 779.759 957.203 781.383 956.173 782.734C955.085 784.16 953.166 785.566 951.389 785.861C942.034 787.41 932.465 784.725 923.088 784.484C908.547 784.111 894.312 785.506 879.751 783.987C869.338 782.901 859.29 779.662 848.746 779.464C835.771 779.22 822.975 782.049 810.125 783.497C798.497 783.834 788.064 780.825 776.739 778.658C769.809 777.309 762.773 776.574 755.714 776.462C739.72 776.112 724.283 783.105 708.656 784.42C708.084 784.017 707.789 783.99 707.602 783.257C706.221 777.853 710.39 767.211 712.774 762.342C719.364 748.885 731.5 737.86 745.764 733.146C760.912 728.14 779.197 729.31 793.517 736.44C795.645 732.628 797.893 729.015 800.708 725.663C813.969 709.875 833.421 703.864 853.355 702.221Z"/>
	<path fill="#A85248" d="M498.597 909.568C500.299 909.467 502.004 909.448 503.686 909.784C507.61 910.568 510.939 912.976 513.085 916.321C516.062 920.961 516.577 926.369 515.472 931.678C510.774 954.261 479.182 974.671 460.72 986.512C458.788 983.097 456.878 979.67 454.99 976.231C452.501 971.382 450.345 966.37 448.536 961.228C444.602 949.751 442.333 935.307 448.092 924.018C449.947 920.381 453.022 916.489 457.15 915.396C459.474 914.78 461.834 915.241 463.856 916.506C469.25 919.882 470.968 926.511 472.465 932.265C473.864 929.634 475.304 927.017 476.923 924.514C482.186 916.375 489.167 911.625 498.597 909.568Z"/>
	<path fill="#A85248" d="M681.576 842.538C683.491 842.452 685.485 842.301 687.379 842.656C690.865 843.31 693.641 845.22 695.555 848.195C698.703 853.088 699.215 858.912 697.867 864.49C692.387 887.166 664.134 903.171 645.509 914.603C643.938 911.33 642.44 908.022 641.017 904.683C638.204 898.663 635.956 892.396 634.299 885.961C631.452 874.578 629.989 860.6 636.506 850.143C638.531 846.892 641.678 843.518 645.582 842.7C647.884 842.217 650.169 842.792 652.084 844.122C658.011 848.241 658.943 856.18 659.998 862.74L660.404 861.96C665.37 852.476 671.102 845.816 681.576 842.538Z"/>
	<path fill="#A85248" d="M540.432 766.565C542.761 766.497 544.925 766.806 546.956 768.035C552.103 771.149 553.338 778.205 554.634 783.583C556.142 781.515 557.634 779.274 559.394 777.415C563.297 773.295 568.564 770.003 574.389 769.918C577.515 769.873 580.52 770.82 582.739 773.085C585.492 775.896 586.536 780.185 586.386 784.019C585.928 795.707 575.019 806.244 566.989 813.666C558.233 821.161 548.597 826.658 538.219 831.543C534.128 823.083 529.969 814.722 527.584 805.581C525.131 796.174 523.405 783.103 528.751 774.374C531.492 769.898 535.435 767.7 540.432 766.565Z"/>
	<path fill="#A85248" d="M796.615 612.579C799.405 612.448 801.257 612.498 803.518 614.276C807.163 617.143 808.175 622.471 808.607 626.816C810.557 623.648 812.549 620.536 815.354 618.046C818.901 614.899 823.486 612.679 828.331 613.034C831.329 613.253 834.116 614.546 836.054 616.868C838.328 619.593 839.184 623.104 838.88 626.603C838.053 636.15 830.106 643.63 823.347 649.572C815.433 656.293 806.69 661.958 797.869 667.395C791.212 655.243 782.402 638.208 786.888 623.9C788.567 618.542 791.766 615.21 796.615 612.579Z"/>
	<path d="M157.214 602.601C158.816 605.789 158.026 611.392 158.278 614.998L157.235 617.63C155.786 612.421 155.762 607.814 157.214 602.601Z"/>
</svg>
